<?xml version="1.0" encoding="utf-8"?>
<!-- Generator: Adobe Illustrator 27.0.0, SVG Export Plug-In . SVG Version: 6.00 Build 0)  -->
<svg version="1.1" id="Achtergrond__x2B__Curven_1_xA0_Afbeelding_00000128453536948622907520000016699175434046350754_"
	 xmlns="http://www.w3.org/2000/svg" xmlns:xlink="http://www.w3.org/1999/xlink" x="0px" y="0px" viewBox="0 0 460.95 622.53"
	 style="enable-background:new 0 0 460.95 622.53;" xml:space="preserve">
<path d="M279.11,598.38c-2.07-5.91-4.05-11.86-6.23-17.73c-3.06-8.27-6.42-16.44-9.31-24.77c-1.15-3.33-3.14-4.71-6.39-5.14
	c-5.88-0.79-11.74-1.74-17.56-3.51c6.76-2.2,13.39,0.85,20.9,1.12c-6.06-14.52-11.95-28.65-18.07-43.32
	c-5.1,9.68-9.56,18.69-14.55,27.39c-2.8,4.88-6.22,9.47-9.8,13.83c-11.12,13.55-12.18,25.3-2.77,40.22
	c6.75,10.7,13.97,21.1,20.94,31.66c0.86,1.31,1.48,2.78,2.34,4.42c-0.74-0.06-1-0.01-1.06-0.1c-9.43-13.87-19.62-27.3-28.02-41.77
	c-7.03-12.11-3.62-24.32,5.15-34.7c10.35-12.25,17.36-26.32,23.68-40.86c1.53-3.51,1.47-6.5-0.52-9.87
	c-9.65-16.33-19.02-32.82-28.79-49.07c-0.94-1.57-4-2.63-6.08-2.64c-49.33-0.15-98.66-0.12-147.99-0.11
	c-15.45,0-29.25-4.42-40.1-15.82C4.4,416.57-0.03,403.26,0,388.01c0.15-84.66,0.07-169.32,0.07-253.98c0-8.67-0.04-17.33,0.01-26
	c0.07-11.34,5.52-16.7,16.97-16.77c3.62-0.02,7.24,0,11.29,0c0-2.45,0-4.25,0-6.05c0-22.33-0.01-44.66,0.01-66.99
	c0-1.66-0.09-3.38,0.29-4.97c0.99-4.18,3.58-6.92,8.07-6.65c4.37,0.26,6.93,2.98,7.52,7.34c0.2,1.48,0.11,2.99,0.11,4.49
	c0.01,22.16,0.01,44.33,0.01,66.49c0,1.82,0,3.64,0,5.9c6.13,0,12,0,18.55,0c0-1.8,0-3.58,0-5.35c0-17.5-0.02-35,0.01-52.5
	c0.02-8.26,2.51-10.79,10.69-10.83c11.5-0.06,23,0.14,34.49-0.16c2.06-0.05,4.77-1.42,5.99-3.06c18.98-25.46,52.28-25.2,71.14,0.58
	c1.03,1.41,3.46,2.46,5.27,2.51c9.66,0.25,19.33,0.06,28.99,0.14c7.52,0.06,10.19,2.71,10.22,10.31c0.07,17.66,0.02,35.33,0.02,53
	c0,1.78,0,3.56,0,5.55c6.35,0,12.1,0,18.52,0c0-2,0-3.76,0-5.53c0-22.5-0.01-45,0.03-67.49c0-1.97,0.08-4.03,0.63-5.9
	c1.06-3.56,3.88-6.18,7.37-5.33c2.77,0.68,5.39,3.25,7.31,5.6c1.04,1.26,0.63,3.83,0.63,5.82c0.03,22.33,0.02,44.66,0.02,66.99
	c0,1.8,0,3.61,0,6.09c4.03,0,7.64-0.02,11.24,0c11.73,0.07,17.03,5.37,17.03,17.19c0.02,70.33,0.01,140.65,0.01,210.98
	c0,22.33,0.28,44.67-0.15,66.99c-0.15,7.71-2.1,15.39-3.12,23.1c-0.18,1.35-0.2,3,0.4,4.14c2.16,4.11,4.45,8.18,7.09,11.98
	c0.77,1.11,3.15,2.09,4.38,1.73c10.71-3.14,20.53-0.57,29.85,4.51c11.24,6.12,22.12,12.92,33.45,18.84
	c6.25,3.26,13.05,5.58,19.75,7.88c8.78,3.01,17.98,4.95,26.52,8.5c13.49,5.61,27.92,5.93,41.88,8.79c2.82,0.58,5.6,1.32,8.35,2.15
	c-21.71-2.26-42.94-6.14-63.99-12.4c-18.87-5.61-36.51-12.77-52.94-23.48c-6.22-4.05-13.26-6.87-20.03-10.02
	c-7.22-3.36-14.72-3.89-23.24-1.07c9.64,14.85,19.65,29.09,31.62,41.99c-0.58,0.48-1.17,0.97-1.75,1.45
	c-2.3-2.23-4.94-4.21-6.85-6.74c-8.22-10.89-16.29-21.89-24.3-32.94c-11.4-15.74-23.07-31.3-33.96-47.39
	c-19.9-29.38-44.06-55.99-57.16-89.82c-6.14-15.88-14.03-31.08-21.46-47.32c-3.33,12.47-12.2,17.2-22.88,17.64
	c-15.41,0.64-21.22-11.52-28.42-22.79c0.67,6.37,1.01,12.8,2.07,19.1c5.64,33.49,17.14,65.21,30.14,96.38
	c4.97,11.92,11.43,23.24,17.51,34.67c9.51,17.88,19.2,35.67,28.97,53.41c3.94,7.15,8.21,14.11,12.47,21.07
	c23.91,39.05,38.17,82.18,52.94,125.1c0.36,1.04,0.35,2.22,0.51,3.33C279.84,598.25,279.48,598.32,279.11,598.38z M63.25,94.49
	c-15.69,0-30.82,0-45.94,0c-10.28,0-14.09,3.8-14.09,14.06c0,93.66,0.08,187.31-0.05,280.97c-0.04,27.61,19.92,50.9,50.93,50.98
	c48.83,0.13,97.66,0.04,146.48,0.02c1.54,0,3.09-0.19,4.83-0.3c-0.23-1.18-0.21-1.89-0.5-2.44c-5.07-9.82-10.05-19.68-15.33-29.39
	c-6.3-11.6-13.85-22.63-19.09-34.68c-8.21-18.86-15.42-38.19-22.14-57.64c-5.11-14.8-8.78-30.1-13.21-45.6
	c-14.37,0-29.19,0.03-44.01-0.01c-17.29-0.04-28.18-13.94-28.03-28.2c0.4-37.82,0.14-75.66,0.13-113.49
	C63.25,117.61,63.25,106.46,63.25,94.49z M135.36,267.53c-0.28-2.33-0.58-4.08-0.69-5.85c-0.5-7.92-0.91-15.85-1.44-23.77
	c-0.15-2.27,0.04-4.9-1.02-6.73c-4.68-8.03-3.18-17.65,3.97-22.81c7.46-5.38,17.26-4.12,23.3,2.98c0.96,1.12,1.78,2.59,3.01,3.2
	c9.42,4.73,15.1,12.97,19.82,21.77c4.77,8.89,8.58,18.3,13.01,27.39c0.75,1.53,2.4,3.41,3.85,3.63c2.89,0.43,6.02,0.22,8.9-0.43
	c12.14-2.74,18.82-12.16,18.83-26.41c0.03-68.81,0.02-137.62,0.01-206.43c0-7.86-1.32-9.12-9.44-9.12
	c-47.48-0.01-94.97-0.01-142.45,0c-8.16,0-9.25,1.09-9.26,9.2c-0.02,22.16-0.01,44.32-0.01,66.48c0,46.32-0.01,92.63,0,138.95
	c0.01,18.69,9.22,27.94,27.77,27.94c5.33,0,10.66,0,15.99,0C117.99,267.53,126.45,267.53,135.36,267.53z M285.15,408.17
	c0.6-0.02,1.19-0.05,1.79-0.07c0.78-5.7,2.22-11.4,2.23-17.1c0.14-94.63,0.11-189.25,0.09-283.88c0-8.25-4.38-12.56-12.68-12.59
	c-14.32-0.05-28.65-0.02-42.97,0.01c-1.26,0-2.52,0.26-4.19,0.45c0,2.29,0,4.26,0,6.23c0,46.81,0.02,93.63-0.02,140.44
	c-0.01,13.83-5.73,22.65-17.66,26.98c-3.51,1.27-7.33,1.66-9.92,2.22C216.79,324.18,253.33,364.71,285.15,408.17z M155.48,214.33
	c-13.82,1.11-22.79,14.33-17.53,26.47c2.1,4.84,4.63,9.59,7.58,13.96c7.81,11.6,18.76,13.78,30.7,6.6
	c5.58-3.36,8.37-8.17,7.19-14.62c-1.99-10.9-7.66-19.84-16.25-26.63C163.83,217.48,159.41,216.22,155.48,214.33z M115.92,22.09
	c22.75,0,44.55,0,67.39,0c-8.67-11.51-18.8-18.35-32.66-18.7C135.81,3.01,124.74,9.65,115.92,22.09z M41.16,91.22
	c0-2.28,0-3.93,0-5.58c0-22.33-0.01-44.66,0.01-66.99c0-3.9,0.34-8.72-4.93-8.64c-5.23,0.08-4.74,4.98-4.74,8.79
	c-0.01,22.33-0.01,44.66-0.01,66.99c0,1.77,0,3.54,0,5.43C35,91.22,37.76,91.22,41.16,91.22z M260.29,91.32
	c0.39-0.74,0.67-1.03,0.67-1.31c0.06-24.82,0.13-49.64,0.09-74.46c-0.01-3.08-1.64-6.11-4.94-5.48c-1.83,0.35-3.27,3.4-4.6,5.42
	c-0.46,0.7-0.1,1.95-0.1,2.95c0,22.66-0.01,45.32,0,67.97c0,1.59,0.17,3.19,0.26,4.91C254.89,91.32,257.53,91.32,260.29,91.32z
	 M134.81,229.48c3.36-11.6,11.03-16.47,22.31-16.65c-6.29-6.28-13.85-6.88-19.74-2.12C131.77,215.24,130.45,222.28,134.81,229.48z"
	/>
</svg>
