<?xml version="1.0" encoding="utf-8"?>
<!-- Generator: Adobe Illustrator 27.0.0, SVG Export Plug-In . SVG Version: 6.00 Build 0)  -->
<svg version="1.1" id="Laag_1" xmlns="http://www.w3.org/2000/svg" xmlns:xlink="http://www.w3.org/1999/xlink" x="0px" y="0px"
	 viewBox="0 0 649.7 556.3" style="enable-background:new 0 0 649.7 556.3;" xml:space="preserve">
<style type="text/css">
	.st0{fill-rule:evenodd;clip-rule:evenodd;}
</style>
<path d="M501.4,76.9H150.1L0,0v556.3l150.1-76.9h351.4l148.2,76.9V0L501.4,76.9z M73.2,475.8l-40.2,22V289.1h40.2V475.8z M73.2,269
	H32.9V60.4l40.2,20.2V269z M93.3,89.7l27.4,12.8V269H93.3V89.7z M120.8,453.8l-27.4,14.6V289.1h27.4V453.8z M497.8,446.6H151.9
	V109.8h345.9V446.6z M556.3,468.5l-25.6-14.6V289.1h25.6V468.5z M556.3,269h-25.6V102.5l25.6-12.8V269z M616.7,497.8l-38.4-22V289.1
	h38.4V497.8z M616.7,269h-38.4V80.5l38.4-20.2V269z"/>
<path class="st0" d="M325,115.6c22.4,0,40.6,18.2,40.6,40.6v152.1c20,13.5,31.9,36,31.9,60.1c0,19.4-7.5,37.6-21.2,51.3
	c-13.6,13.6-32,21.3-51.3,21.2c-19.4,0-37.6-7.5-51.3-21.2c-13.6-13.6-21.3-32-21.2-51.3c0-24.1,11.9-46.6,31.9-60.1V156.2
	C284.5,133.8,302.6,115.6,325,115.6z M325,130.6c-6.8,0-13.3,2.7-18.1,7.5c-4.8,4.8-7.5,11.3-7.5,18.1v156.2c0,2.6-1.4,5.1-3.7,6.5
	c-8.5,5-15.5,12.1-20.5,20.6c-5.1,8.8-7.8,18.7-7.8,28.9c0,15.3,6,29.9,16.9,40.7c10.8,10.8,25.4,16.9,40.7,16.9
	c15.3,0,29.9-6,40.7-16.9c10.8-10.8,16.9-25.4,16.9-40.7c0-10.1-2.7-20.1-7.8-28.9c-5-8.5-12-15.6-20.5-20.6
	c-2.3-1.4-3.7-3.8-3.7-6.5V156.2c0-6.8-2.7-13.3-7.5-18.1C338.3,133.3,331.8,130.6,325,130.6z M336.4,232.8v93.9
	c19.1,5.1,32.3,22.4,32.3,42.2c0,24.1-19.6,43.7-43.7,43.7s-43.7-19.6-43.7-43.7c0-19.7,13.2-37,32.3-42.2v-93.9H336.4z"/>
</svg>
