<?xml version="1.0" encoding="utf-8"?>
<!-- Generator: Adobe Illustrator 27.0.0, SVG Export Plug-In . SVG Version: 6.00 Build 0)  -->
<svg version="1.1" id="Laag_1" xmlns="http://www.w3.org/2000/svg" xmlns:xlink="http://www.w3.org/1999/xlink" x="0px" y="0px"
	 viewBox="0 0 7.9 9.9" style="enable-background:new 0 0 7.9 9.9;" xml:space="preserve">
<path d="M7.1,4.2V3.1L7,2.6L6.9,2.1L6.7,1.7L6.4,1.3L6.1,0.9L5.8,0.6L5.3,0.3L4.9,0.1L4.4,0L3.9,0L3.5,0L3,0.1L2.5,0.3L2.1,0.6
	L1.8,0.9L1.5,1.3L1.2,1.7L1,2.1L0.9,2.6L0.8,3.1v1.2H0v5.6h7.9V4.2H7.1z M4.9,6.6L4.8,6.8L4.6,7.1L4.3,7.2h0l0.3,1.6H3.2l0.3-1.6
	L3.3,7.1L3.1,6.8L3,6.6l0-0.3L3,6l0.1-0.3l0.2-0.2l0.2-0.2l0.3-0.1h0.3l0.3,0.1l0.2,0.2l0.2,0.2L4.9,6l0,0.3L4.9,6.6z M6.3,4.2H1.6
	V3.1l0-0.4l0.1-0.4l0.2-0.4l0.3-0.3l0.3-0.3L2.9,1l0.4-0.1l0.4-0.1h0.4l0.4,0.1L5,1l0.4,0.2l0.3,0.3l0.3,0.3l0.2,0.4l0.1,0.4
	l0.1,0.4V4.2z"/>
</svg>
