<?xml version="1.0" encoding="utf-8"?>
<!-- Generator: Adobe Illustrator 27.0.0, SVG Export Plug-In . SVG Version: 6.00 Build 0)  -->
<svg version="1.1" id="Laag_1" xmlns="http://www.w3.org/2000/svg" xmlns:xlink="http://www.w3.org/1999/xlink" x="0px" y="0px"
	 viewBox="0 0 992.1 992.1" style="enable-background:new 0 0 992.1 992.1;" xml:space="preserve">
<style type="text/css">
	.st0{fill:none;stroke:#000000;stroke-width:14;stroke-linecap:round;stroke-linejoin:round;}
	.st1{fill:none;stroke:#000000;stroke-width:4;stroke-linecap:round;stroke-linejoin:round;}
	.st2{fill:none;stroke:#000000;stroke-width:8;stroke-linecap:round;stroke-linejoin:round;}
	.st3{fill:none;}
</style>
<g>
	<path class="st0" d="M302.8,923.1"/>
	<line class="st1" x1="423.6" y1="614.2" x2="423.6" y2="614.2"/>
	<line class="st1" x1="499.9" y1="393" x2="499.9" y2="393"/>
	<line class="st1" x1="408.5" y1="464.7" x2="408.5" y2="464.7"/>
	<line class="st1" x1="496.1" y1="252.5" x2="496.1" y2="252.5"/>
	<line class="st1" x1="567.9" y1="194.4" x2="567.9" y2="194.4"/>
	<line class="st1" x1="565.6" y1="192.1" x2="565.6" y2="192.1"/>
	<path class="st1" d="M151,832.5"/>
	<line class="st0" x1="155" y1="860.6" x2="207.7" y2="928.4"/>
	<line class="st0" x1="828.4" y1="136.2" x2="772.9" y2="69.6"/>
	<polyline class="st1" points="433.4,609.7 394.2,664.1 391.9,666.3 390.4,667.8 388.1,668.6 385.9,669.3 381.3,670.1 377.6,669.3 
		374.6,667.8 373.8,667.1 373,665.6 372.3,664.1 372.3,662.5 373,660.3 373.8,658 376.1,656.5 378.3,654.2 380.6,653.5 383.6,652.7 
		385.9,652.7 388.1,652.7 390.4,653.5 391.9,654.2 393.4,654.2 394.2,654.2 395.7,653.5 397.2,652.7 422.9,617.2 423.6,616.5 
		423.6,615 423.6,614.2 422.1,613.5 401,611.2 380.6,608.9 379.8,608.9 378.3,608.9 376.8,611.2 336.8,667.8 335.3,670.1 333,671.6 
		331.5,673.1 329.2,673.9 324.7,674.6 321.7,673.9 318.7,673.1 317.2,671.6 316.4,670.9 316.4,669.3 316.4,667.1 316.4,665.6 
		317.9,663.3 319.4,661 321.7,659.5 324.7,658 327,657.3 329.2,657.3 331.5,657.3 335.3,658 336,658 337.6,658 339.1,657.3 
		339.8,655.8 378.3,602.1 380.6,600.6 381.3,599.9 382.1,599.9 432.7,605.9 433.4,606.7 434.2,607.4 434.2,608.9 433.4,609.7 	"/>
	<polyline class="st1" points="495.4,418.6 502.9,416.4 504.4,417.1 504.4,417.9 498.4,434.5 496.9,435.2 496.1,435.2 490.1,433.7 
		489.3,433 489.3,432.2 493.9,420.9 494.6,419.4 495.4,418.6 	"/>
	<polyline class="st1" points="483.3,442 489.3,444.3 490.1,445.1 489.3,445.8 474.2,459.4 472.7,460.2 472,459.4 470.4,454.1 
		470.4,453.4 471.2,452.6 481.8,442.8 482.5,442.8 483.3,442 	"/>
	<polyline class="st1" points="461.4,392.2 462.9,392.2 463.6,390.7 465.9,384.7 465.9,383.1 464.4,383.1 447,389.9 446.3,390.7 
		445.5,391.5 447.8,396.7 448.5,396.7 449.3,396.7 461.4,392.2 	"/>
	<polyline class="st1" points="472.7,389.9 475.7,383.9 476.5,382.4 478,382.4 491.6,386.2 492.3,386.9 491.6,388.4 485.6,393.7 
		484.8,394.5 483.3,394.5 473.5,391.5 472.7,391.5 472.7,389.9 	"/>
	<polyline class="st1" points="499.9,393 505.2,405.8 504.4,407.3 502.9,408.1 496.1,410.3 494.6,410.3 494.6,409.6 490.8,400.5 
		490.8,399.8 491.6,399 497.6,393.7 498.4,393 499.9,393 	"/>
	<polyline class="st1" points="413.1,423.2 419.1,424.7 419.1,425.4 419.1,426.2 414.6,437.5 414.6,438.3 413.1,439 406.3,442.1 
		405.5,442.1 404.8,441.3 410.8,424.7 412.3,423.9 413.1,423.2 	"/>
	<polyline class="st1" points="437.2,405 426.6,414.9 425.9,415.6 425.1,415.6 419.9,414.1 419.1,413.4 419.9,412.6 434.2,398.3 
		435.7,397.5 436.5,398.3 438,402.8 438,403.5 437.2,405 	"/>
	<polyline class="st1" points="445.5,463.9 458.4,460.2 459.1,460.2 459.9,460.2 462.1,465.5 462.1,466.2 460.6,467.7 442.5,473.8 
		441.8,473 441.8,472.3 444,465.5 444.8,464.7 445.5,463.9 	"/>
	<polyline class="st1" points="434.2,466.2 431.9,473 431.2,473.8 429.7,474.5 416.1,470.7 415.3,470 416.1,468.5 422.1,463.2 
		423.6,462.4 424.4,462.4 434.2,464.7 434.2,465.5 434.2,466.2 	"/>
	<polyline class="st1" points="408.5,464.7 409.3,464.7 410.8,464 416.8,458.7 417.6,457.1 417.6,456.4 413.8,448.1 413.8,447.3 
		413.1,447.3 405.5,450.4 404.8,451.1 404,452.6 408.5,464.7 	"/>
	<polyline class="st1" points="521,195.9 522.6,194.4 524.1,192.1 524.8,190.6 524.8,189.1 523.3,187.6 521.8,187.6 520.3,187.6 
		518,189.1 511.2,194.4 504.4,200.4 498.4,206.5 493.1,214 488.6,220.8 485.5,228.3 483.3,235.1 482.5,241.9 482.5,248.7 484,254 
		484.8,257 486.3,259.3 488.6,261.6 490.1,263.1 492.3,264.6 495.4,266.1 500.6,268.4 507.5,269.1 514.2,269.1 521.8,268.4 
		530.1,266.1 537.7,263.1 546,259.3 553.5,254 560.3,248.7 567.1,241.9 572.4,235.1 576.9,228.3 580.7,221.6 582.2,214 583.7,207.2 
		583.7,203.4 583,200.4 582.2,197.4 581.4,194.4 578.4,189.1 574.7,184.6 573.1,183.8 571.6,183.8 569.4,184.6 567.9,186.1 
		566.3,187.6 565.6,189.1 565.6,191.3 566.3,192.1 569.4,195.9 571.6,200.4 572.4,204.9 573.1,210.2 572.4,215.5 570.1,221.6 
		567.9,226.8 564.1,232.9 559.6,238.2 555,243.4 549,248 542.9,251.8 536.9,254.8 530.1,257.8 524.1,259.3 518,260.1 512,260.1 
		506.7,259.3 502.2,257.8 498.4,254.8 495.4,251.8 493.9,248 492.3,243.4 492.3,238.2 493.1,232.9 494.6,226.8 497.6,221.6 
		500.6,215.5 505.2,210.2 509.7,204.9 515,199.6 521,195.9 	"/>
	<polyline class="st1" points="555.8,173.2 542.2,208 541.4,209.5 539.9,211 537.7,211.7 536.1,212.5 534.6,212.5 533.9,211 
		533.1,210.2 533.1,208.7 546.7,173.2 547.5,171.7 549,170.2 551.2,169.5 552.8,168.7 554.3,169.5 555,170.2 555.8,171 555.8,173.2 
			"/>
	<polyline class="st1" points="463.7,383.9 466.7,382.4 462.9,392.2 447.8,397.5 445.5,390.7 448.6,389.2 	"/>
	<polyline class="st1" points="475.7,382.4 481,382.4 485.5,383.1 489.3,384.7 493.1,386.9 484,394.5 472.7,391.5 475.7,382.4 	"/>
	<polyline class="st1" points="499.1,392.2 501.4,395.2 502.9,399 504.4,402.8 505.2,407.3 494.6,410.3 490.1,399.8 499.1,392.2 	
		"/>
	<polyline class="st1" points="493.9,419.4 504.4,416.4 503.7,420.9 502.2,426.2 499.9,430.7 497.6,436 488.6,433 493.9,419.4 	"/>
	<polyline class="st1" points="435.7,396.7 438,403.5 425.9,415.6 418.3,414.1 426.6,405 435.7,396.7 	"/>
	<polyline class="st1" points="412.3,423.2 419.9,424.7 414.6,438.3 404.7,442.8 405.5,437.5 407,433 409.3,428.5 412.3,423.2 	"/>
	<polyline class="st1" points="404,451.1 413.8,447.3 417.6,457.2 409.3,465.5 407,462.4 405.5,459.4 404.7,454.9 404,451.1 	"/>
	<polyline class="st1" points="414.6,470 423.6,462.4 435,465.5 431.2,474.5 426.6,473.8 422.1,473 418.3,472.2 414.6,470 	"/>
	<polyline class="st1" points="441,473.8 444.8,464.7 459.9,459.4 462.9,467 451.6,471.5 441,473.8 	"/>
	<polyline class="st1" points="472.7,460.9 469.7,453.4 482.5,442 490.8,444.3 482.5,453.4 472.7,460.9 	"/>
	<polyline class="st1" points="524.1,185.3 525.6,192.9 519.5,197.4 513.5,201.9 507.5,206.4 502.9,212.5 499.1,218.5 496.1,224.6 
		493.9,230.6 492.3,235.9 492.3,241.9 493.1,246.5 495.4,251 498.4,254.8 502.2,257 506.7,259.3 512,260.1 518,260.1 524.1,259.3 
		530.9,257 537.6,254.8 544.5,251 550.5,246.5 555.8,241.9 561.1,236.7 565.6,230.6 568.6,224.6 571.6,218.5 572.4,213.2 
		573.1,207.2 572.4,201.9 570.9,199.7 570.1,197.4 567.1,193.6 563.3,189.8 570.9,181.5 576.2,186.1 579.9,190.6 581.5,193.6 
		582.2,196.6 583,199.7 583.7,203.4 583,210.2 581.5,217.8 578.4,225.3 573.9,232.9 568.6,240.4 562.6,246.5 555,252.5 547.5,257.8 
		539.2,262.3 530.9,266.1 522.5,268.4 514.2,269.1 506.7,269.1 503.7,269.1 499.9,268.4 496.9,266.9 494.6,266.1 491.6,264.6 
		489.3,262.3 487.8,260.1 485.5,257.8 484.8,255.5 483.3,252.5 482.5,249.5 482.5,246.5 482.5,243.5 482.5,239.7 484,232.9 
		487.1,225.3 490.8,217.8 496.1,210.2 501.4,202.7 508.2,196.6 515.8,190.6 524.1,185.3 	"/>
	<polyline class="st1" points="548.2,169.4 557.3,168.7 540.7,211.7 531.6,212.5 548.2,169.4 	"/>
	<polyline class="st2" points="422.1,124.1 425.9,117.3 430.4,109 435.7,102.2 442.5,95.4 449.3,89.4 456.1,84.1 462.9,80.3 
		466.7,78.8 469.7,78.1 484.8,74.3 499.1,71.3 514.2,69 530.1,66 546,63.7 561.8,62.2 578.4,60 595,59.2 611.7,57.7 628.3,56.9 
		645.6,56.2 663.8,56.2 681.1,56.2 699.3,56.9 735.5,58.4 739.3,58.4 743.1,59.2 747.6,60.7 750.6,62.2 754.4,63.7 757.4,66 
		759.7,68.3 761.9,71.3 764.2,74.3 765.7,77.3 766.5,80.3 767.2,84.1 767.2,87.9 767.2,91.7 766.5,95.4 764.9,99.2 498.4,797.7 
		496.9,801.5 494.6,805.3 492.3,808.3 489.3,812.1 486.3,815.1 482.5,818.1 475,822.6 466.7,827.2 457.6,829.4 448.5,830.9 
		444.8,830.9 440.2,830.9 422.1,830.2 404,829.4 385.9,828.7 368.5,828.7 351.1,828.7 333.8,829.4 316.4,830.2 299.8,830.9 
		283.2,832.4 267.3,834 250.7,836.2 234.8,838.5 219.7,841.5 204.6,844.5 189.5,847.6 175.2,851.3 171.4,851.3 168.4,852.1 
		165.4,852.1 163.1,851.3 160.8,850.6 158.6,849.8 157.1,848.3 155.6,846.8 154,844.5 153.3,842.3 152.5,840 152.5,837 152.5,834 
		153.3,830.2 154,827.2 155.6,823.4 422.1,124.1 	"/>
	<path class="st0" d="M498.1,918.6c29.2-3.8,54-23.6,65.4-50.8"/>
	<line class="st0" x1="235.6" y1="938.9" x2="498.6" y2="918.3"/>
	<path class="st1" d="M507.5,802.2"/>
	<line class="st0" x1="830.6" y1="170.2" x2="564.1" y2="868.7"/>
	<path class="st1" d="M774.8,103.8"/>
	<path class="st0" d="M206.9,928c7,8.2,17.8,12.2,28.5,10.6"/>
	<polyline class="st1" points="623,222.3 620,229.9 616.2,236.7 611.7,243.5 607.1,250.2 	"/>
	<line class="st1" x1="623.7" y1="220.8" x2="623" y2="222.3"/>
	<path class="st0" d="M831,170c5.4-11,4.3-24.1-3-33.9"/>
	<polyline class="st0" points="737.8,50.1 702.3,48.6 684.9,47.9 667.5,47.9 650.2,47.9 632.8,48.6 616.2,49.4 599.6,50.1 583,51.7 
		567.1,53.2 551.3,55.4 536.1,57.7 520.3,60 505.2,63 490.8,66 476.5,69.8 472,70.5 468.2,72.8 463.6,74.3 459.1,77.3 454.6,80.3 
		450.1,83.4 441.8,90.9 434.2,100 427.4,109 421.4,118.9 419.1,123.4 417.6,127.9 150.3,826.4 148.8,830.9 148,835.5 147.2,840 
		146.5,843.8 147.2,847.6 147.2,850.6 148.8,853.6 149.5,855.9 151.8,858.1 154.1,859.6 156.3,861.1 159.3,861.9 162.4,862.7 
		166.1,862.7 169.9,862.7 173.7,861.9 188,858.1 203.1,855.1 218.2,852.1 233.3,849.8 249.2,847.6 265,845.3 280.9,843.8 
		297.5,842.3 314.1,841.5 330.7,840.7 347.4,840 364.7,840 382.1,840 400.2,840 435.7,842.3 441,842.3 446.3,841.5 451.6,840.7 
		457.6,840 462.9,838.5 468.2,836.2 473.5,834 478.8,831.7 484,828.7 488.6,824.9 493.1,821.1 496.9,817.3 499.9,813.6 502.9,809 
		505.9,804.5 508.2,800 774.8,101.5 776.3,97 777,91.7 777.8,87.1 777,82.6 776.3,78.1 775.5,74.3 773.3,70.5 771,66.7 768,63 
		764.9,60 761.2,56.9 757.4,54.7 752.9,53.2 748.3,51.7 743,50.9 737.8,50.1 	"/>
	<path class="st1" d="M317.9,717.7l-5.3-1.5l-5.3-2.3l-4.5-2.3l-4.5-3l-3.2-3.9l-3.6-3.6c0,0-1.8-2.8-2.3-3.8
		c-0.7-1.3-2.3-5.3-2.3-5.3l-1.5-4.5l-0.8-5.3l-0.7-6v-6l0.7-6l1.5-6.8l1.5-6l3-6.8l0,0l3-9.1l4.5-8.3l5.3-8.3l5.3-8.3l6.8-8.3
		l6.8-8.3l7.5-7.6l7.6-6.8l8.3-6.8l9.1-6l8.3-5.3l9.1-4.5l9.1-3.8l9.1-2.3l9.1-2.3l9.1-1.5h8.3l8.3,0.7l7.6,1.5l7.6,3l6.8,3l6,3.8
		l5.3,5.3l4.5,5.3l3.8,6.8l3,6.8l2.3,6.8l0.8,7.6v8.3l-0.8,8.3l-1.5,8.3l-3,8.3l-4.5,9.8l-6,9.8l-6.8,9.8l-7.6,9.1l-9.1,9.1
		l-9.8,7.6l-9.8,7.5l-11.3,6.8l-10.6,5.3l-11.3,4.5l-11.3,3.8l-11.3,3l-10.6,1.5l-10.6,0.7H327L317.9,717.7"/>
	<path class="st1" d="M396.4,513l-5.3-2.3c0,0-5.3-1.5-5.3-1.5l-4.5-3c-7-4.1-13.9-10.8-15.9-18.9c-1.3-4.7-3.6-10.9-3-15.9
		c-0.5-10.7,2.7-22.4,6-32.5l0,0c1.8-4.3,6-12.6,8.3-16.6c2-4.8,7.2-13.4,10.6-17.4l6.8-8.3l6.8-7.6l7.6-7.6l7.5-7.5l8.3-6l8.3-6
		l9.1-5.3l9.1-4.5l9.1-3.8l9.1-3l9.1-2.3l8.3-0.8h9.1l8.3,0.8l7.5,1.5l7.6,2.3l6,3.8l6.8,3.8l5.3,4.5l4.5,6l3.8,6l3,6.8l1.5,7.6
		l1.5,7.5v7.6l-0.7,8.3l-2.3,8.3l-2.3,9.1l-4.5,9.8l-6,9.8l-6.8,9.8l-8.3,9.1L512,473l-9.8,8.3l-10.6,6.8l-10.6,6.8l-11.3,6
		l-11.3,4.5l-11.3,3.8l-10.6,3l-11.3,1.5l-9.8,0.8l-9.8-0.8L396.4,513"/>
	<path class="st1" d="M475,307.6l-6-1.5c-2.4-1.3-7.3-3.5-9.8-4.5c-6.3-4.8-12.5-11.6-15.9-18.9c-1.7-4.8-2.4-11.6-3-16.6
		c0.4-3,1.1-9.1,1.5-12.1c0-6.3,3.4-13.7,5.3-19.6l0,0c1.8-4.4,5.5-13.1,7.6-17.4c4.6-7.8,12.1-17.6,17.4-24.9l6.8-8.3l7.5-7.6
		l8.3-6.8l8.3-6.8l8.3-6l9.1-5.3l8.3-4.5l9.1-3.8l9.1-2.3l9.1-2.3l9.1-0.8l8.3-0.7l8.3,0.7l8.3,1.5l6.8,3l6.8,3l6,4.5l5.3,4.5
		l4.5,5.3l3.8,6.8l3,6.8l2.3,6.8l0.8,7.6v8.3l-0.8,8.3l-1.5,8.3l-3,8.3l-4.5,9.8l-5.3,9.8l-6.8,9.8l-8.3,9.1l-9.1,9.1l-9.1,7.6
		l-10.6,7.5l-10.6,6.8l-11.3,5.3l-11.3,4.5l-11.3,3.8l-11.3,3l-10.6,2.3h-10.6H484L475,307.6"/>
	<line class="st1" x1="440.2" y1="843" x2="439.5" y2="842.3"/>
	<line class="st1" x1="507.4" y1="802.2" x2="506.7" y2="801.5"/>
</g>
<g>
	<path class="st3" d="M246.8,77.6c3.2-14.7-3.6-29.5-15.3-33.1l-5-1.5c-8.2-2.5-16.5-4.9-24.7-7.2l-1.3-0.4c-11-3-22.2-4.6-33.7-4.8
		c-9.3-0.2-17.6,8-19.8,19.3l-7.5,39.5c-0.2,0.8-1.9,10.2-3.8,20.4l-0.2,1l-4.1,21.6c-4.1,21.5-8.3,43.4-13,66.3l-1.3,6.6
		c-15,73.7-31.3,146.6-49.2,216.4C34.6,553.3-8.1,702.7-59.8,870l-3.2,10.3c-5,16.2-0.1,34.2,11.7,42.6l0.8,0.6
		c12.4,8.9,22.5,15.1,30.2,18.6c7.4,3.4,17.6,6.3,30.4,8.6c12.6,2.2,25-7.4,29.1-22.7l5.1-19.2c53.9-202.8,92.5-353.2,116-451.2
		l1.4-6.1c25.9-108.7,52.7-225.8,80.3-351.3L246.8,77.6z"/>
	<path class="st3" d="M-306.3,848.5l0-1.4c0.5-59.1,4.6-130.9,12.2-203c8.9-84.2,22-165.3,39.1-237.1
		c22.9-95.9,62.1-217,117.5-363.3l1.7-4.4c2.4-6.4,0.6-14-4.2-17.5C-154.7,11.2-168,4.5-179.8,1.6c-9.6-2.4-20.4-3.4-32.5-3.1
		l-1.2,0l-0.3,0c-6.9,0.4-13.2,5.8-15.9,13.9c-63.5,186-105.9,339.7-127.5,460.9c-18.3,103-28.4,197.6-27.9,272.2
		c0.6,82.8,14.1,137.3,39.7,157.8c25.7,20.6,48.4,32.3,67.1,36.2l0.4,0.1l-0.2-0.2C-296.3,921.4-306.4,891.9-306.3,848.5z"/>
	<path d="M211.9,358.9c20-86.3,40.6-177.4,61.6-273.3c7.3-33.1-8.2-66.4-34.6-74.4l-5-1.5c-8.4-2.5-16.7-5-25.1-7.3
		c-13.3-3.7-26.8-5.7-40.6-6c-22.6-0.4-42.9,19.3-48.1,46.9L116.6,62C86.4,133.6,18.4,315.4-81,539.3
		c-67.4,151.6-133.2,256.3-197.5,313.9c0-2.2-0.1-4.5,0-6.9l0-3.9c0.6-56.9,4.6-125.8,11.9-195c8.7-82.5,21.5-161.8,38.2-231.6
		c22.5-94,61.1-213.5,116-358.3l1.7-4.4c8.6-22.5,2.3-48.9-14.6-61.1c-17.1-12.4-33.1-20.5-48.1-24.2c-11.6-2.9-24.4-4.1-38.4-3.8
		l-1.3,0c-18.2,0.6-34.8,14.7-42,35.8c-42.8,125.5-76.2,236.6-100.2,333.4c-29.9,92.2-61.4,170.4-94.6,234.7
		c-46.8,90.6-127.2,194.5-241.1,311.6c-28.8,47.4-30.2,65-4.2,52.6c39-18.6,90-28,212.9-153.7c22-22.5,45.7-53.8,71.3-94
		c-1.2,22-1.8,42.9-1.6,62.5c0.6,93.1,16.6,157.2,51.9,185.4c31.2,24.9,59.3,38.7,83.3,42.2c17.8,2.6,33.2-0.7,43.7-8.9
		c0.9-0.5,1.8-0.9,2.6-1.4C-122.8,905-48.8,692.4-5.3,584.1c0.9-2.3,1.9-4.8,2.9-7.3c-25.3,90.4-54.1,187.7-86.5,292
		c-9.9,31.9-0.2,67.2,23,83.9l0.8,0.6c13.6,9.7,24.9,16.7,34.3,21c9.4,4.3,21.4,7.7,35.9,10.3c26.2,4.6,51.8-15.4,60.2-47l1.7-6.5
		c6.4-24.2,12.6-47.7,18.7-70.4c61.1-154.7,112.7-272.5,154.6-353.3l127.1-333.9C317.5,226.9,262.4,292.3,211.9,358.9z
		 M-278.3,939.5c-18.7-4-41.3-15.7-67.1-36.2c-25.6-20.5-39.2-75-39.7-157.8c-0.5-74.7,9.6-169.3,27.9-272.2
		c21.5-121.2,64-274.9,127.5-460.9c2.7-8,9-13.5,15.9-13.9l0.3,0l1.2,0c12.1-0.3,22.9,0.8,32.5,3.1c11.8,2.9,25.1,9.6,39.8,20.3
		c4.8,3.5,6.6,11,4.2,17.5l-1.7,4.4C-192.9,190.1-232,311.1-255,407c-17.2,71.8-30.3,152.8-39.1,237.1
		c-7.6,72.1-11.7,143.9-12.2,203l0,1.4c-0.1,43.3,10,72.9,28.2,90.9l0.2,0.2L-278.3,939.5z M160.1,457.5
		c-23.4,98-62.1,248.4-116,451.2L39.1,928C35,943.2,22.6,952.9,10,950.6c-12.8-2.3-23-5.2-30.4-8.6c-7.7-3.5-17.8-9.8-30.2-18.6
		l-0.8-0.6c-11.8-8.5-16.7-26.4-11.7-42.6l3.2-10.3C-8.1,702.7,34.6,553.3,68.1,421.8c17.8-69.8,34.2-142.7,49.2-216.4l1.3-6.6
		c4.6-23,8.9-44.8,13-66.3l4.1-21.6l0.2-1c1.9-10.2,3.6-19.6,3.8-20.4l7.5-39.5c2.2-11.4,10.5-19.5,19.8-19.3
		c11.4,0.2,22.6,1.8,33.7,4.8l1.3,0.4c8.2,2.3,16.4,4.7,24.7,7.2l5,1.5c11.7,3.6,18.6,18.4,15.3,33.1l-4.9,22.5
		c-27.6,125.5-54.4,242.7-80.3,351.3L160.1,457.5z"/>
</g>
<g>
	<path class="st3" d="M1003.7,133.8c3.2-14.7-3.6-29.5-15.3-33.1l-5-1.5c-8.2-2.5-16.5-4.9-24.7-7.2l-1.3-0.4
		c-11-3-22.2-4.6-33.7-4.8c-9.3-0.2-17.6,8-19.8,19.3l-7.5,39.5c-0.2,0.8-1.9,10.2-3.8,20.4l-0.2,1l-4.1,21.6
		c-4.1,21.5-8.3,43.4-13,66.3l-1.3,6.6c-15,73.7-31.3,146.6-49.2,216.4c-33.5,131.5-76.2,280.9-127.9,448.2l-3.2,10.3
		c-5,16.2-0.1,34.2,11.7,42.6l0.8,0.6c12.4,8.9,22.5,15.1,30.2,18.6c7.4,3.4,17.6,6.3,30.4,8.6c12.6,2.2,25-7.4,29.1-22.7l5.1-19.2
		c53.9-202.8,92.5-353.2,116-451.2l1.4-6.1c25.9-108.7,52.7-225.8,80.3-351.3L1003.7,133.8z"/>
	<path class="st3" d="M450.6,903.3c0.5-59.1,4.6-130.9,12.2-203c8.9-84.2,22-165.3,39.1-237.1c22.9-95.9,62.1-217,117.5-363.3
		l1.7-4.4c2.4-6.4,0.6-14-4.2-17.5c-14.7-10.7-28.1-17.4-39.8-20.3c-9.6-2.4-20.4-3.4-32.5-3.1l-1.2,0l-0.3,0
		c-6.9,0.4-13.2,5.8-15.9,13.9c-63.5,186-105.9,339.7-127.5,460.9c-18.3,103-28.4,197.6-27.9,272.2c0.5,73.2,11.2,124.3,31.3,149.3
		l51.4-4c-2.6-12.3-4-26.4-3.9-42.3L450.6,903.3z"/>
	<path class="st3" d="M411.5,959.4c25.7,20.6,48.4,32.3,67.1,36.2l0.4,0.1l-0.2-0.2c-11.5-11.4-19.8-27.4-24.3-48.6l-51.4,4
		C405.7,954.2,408.5,957,411.5,959.4z"/>
	<path d="M525.2,38.2L541,36l15.9-1.5l16.6-1.5l16.6-0.7l14-0.6c-7.1-3.4-14-5.9-20.7-7.6c-11.6-2.9-24.4-4.1-38.4-3.8l-1.3,0
		c-13.3,0.4-25.7,8.1-34.3,20.4l0.7-0.1L525.2,38.2z"/>
	<path d="M968.8,415c20-86.3,40.6-177.4,61.6-273.3c7.3-33.1-8.2-66.4-34.6-74.4l-5-1.5c-8.4-2.5-16.7-5-25.1-7.3
		c-13.3-3.7-26.8-5.7-40.6-6c-22.6-0.4-42.9,19.3-48.1,46.9l-3.6,18.8c-4.2,9.9-9.1,22-14.7,36c0.3,5.7-0.8,11.4-3.3,16.5l0,0
		l-275,720c-11.7,27.7-37.3,47.9-67.4,51.8l-58.5,4.5c4.5,21.2,12.8,37.2,24.3,48.6l0.2,0.2l-0.4-0.1c-18.7-4-41.3-15.7-67.1-36.2
		c-3-2.4-5.8-5.2-8.4-8.5l-33.8,2.6c7.2,14.8,16.1,26.5,26.7,35c31.2,24.9,59.3,38.7,83.3,42.2c17.8,2.6,33.2-0.7,43.7-8.9
		c0.9-0.5,1.8-0.9,2.6-1.4C634,961.1,708.1,748.5,751.6,640.2c0.9-2.3,1.9-4.8,2.9-7.3c-25.3,90.4-54.1,187.7-86.5,292
		c-9.9,31.9-0.2,67.2,23,83.9l0.8,0.6c13.6,9.7,24.9,16.7,34.3,21c9.4,4.3,21.4,7.7,35.9,10.3c26.2,4.6,51.8-15.4,60.2-47l1.7-6.5
		c6.4-24.2,12.6-47.7,18.7-70.4c61.1-154.7,112.7-272.5,154.6-353.3l127.1-333.9C1074.4,283,1019.3,348.4,968.8,415z M917,513.7
		c-23.4,98-62.1,248.4-116,451.2l-5.1,19.2c-4.1,15.3-16.4,24.9-29.1,22.7c-12.8-2.3-23-5.2-30.4-8.6c-7.7-3.5-17.8-9.8-30.2-18.6
		l-0.8-0.6c-11.8-8.5-16.7-26.4-11.7-42.6l3.2-10.3C748.8,758.9,791.4,609.5,825,478c17.8-69.8,34.2-142.7,49.2-216.4l1.3-6.6
		c4.6-23,8.9-44.8,13-66.3l4.1-21.6l0.2-1c1.9-10.2,3.6-19.6,3.8-20.4l7.5-39.5c2.2-11.4,10.5-19.5,19.8-19.3
		c11.4,0.2,22.6,1.8,33.7,4.8l1.3,0.4c8.2,2.3,16.4,4.7,24.7,7.2l5,1.5c11.7,3.6,18.6,18.4,15.3,33.1l-4.9,22.5
		c-27.6,125.5-54.4,242.7-80.3,351.3L917,513.7z"/>
</g>
</svg>
