<?xml version="1.0" encoding="utf-8"?>
<!-- Generator: Adobe Illustrator 27.0.0, SVG Export Plug-In . SVG Version: 6.00 Build 0)  -->
<svg version="1.1" id="Laag_1" xmlns="http://www.w3.org/2000/svg" xmlns:xlink="http://www.w3.org/1999/xlink" x="0px" y="0px"
	 viewBox="0 0 425.2 425.2" style="enable-background:new 0 0 425.2 425.2;" xml:space="preserve">
<style type="text/css">
	.st0{fill:none;}
	.st1{fill:#FFFFFF;}
	.st2{fill:none;stroke:#000000;stroke-width:4;stroke-miterlimit:22.926;}
	.st3{fill:#0066FF;stroke:#000000;stroke-width:4;stroke-miterlimit:22.926;}
</style>
<path d="M169.8,67.6c4.9-0.9,10.1,0,14.7,2c3.5,1.6,6.6,4.8,6.4,8.9c0.2,8.2-0.5,16.4-0.9,24.6c-3.9,5.4-11.5,5.5-17.5,5.8
	c-4.6-0.2-11.1,0-13.2-5.1c-3.5-7.7-1-16.3-0.2-24.3C159.5,73.7,164,68.4,169.8,67.6 M168.9,71.8c-3.1,1-5.5,3.6-6.2,6.8
	c-1.7,6.5-2.1,13.4-1.9,20.1c-0.2,4.7,5.1,6.6,9,6.6c5.7,0,12.1,0.1,17-3.4c1.5-5.7,1-11.7,1.4-17.5c0.1-4,0-9.1-4.1-11.2
	C179.4,71,173.9,70.4,168.9,71.8z"/>
<path d="M157.6,208.7c5.2-1.6,10.6-2,16-2.1c3.2,0.2,7.6,0.4,8.7,4.1c-3.5,0.3-6.9,0.2-10.4-0.1c1.3,1.1,2.1,2.7,3.3,3.8
	c-6.6-0.9-13.1-1.7-19.7-2.4C156.2,210.8,155.9,208.9,157.6,208.7z"/>
<path d="M150.2,219.2c1.3-0.6,2.6-1.8,4.2-1.3c4.4,0.6,8.7,2.2,13.1,2.4c5.6,0.5,11-1.3,16.4-2.3c0.1,0.6,0.4,1.9,0.5,2.5
	c-8.1,3.4-17.2,3.6-25.8,2.1C155.6,222.1,152.8,220.7,150.2,219.2z"/>
<path class="st0" d="M198.2,210.4c0-0.7,0-1.5,0-2.2c0-0.2,0-0.4,0-0.6C198.2,208.5,198.2,209.5,198.2,210.4z"/>
<path class="st0" d="M196.5,127c-0.2-2.9-0.3-5.9-0.3-8.8c0-1.1,0-2.2,0-3.3c0,0.9,0,1.7,0,2.6C196.1,120.7,196.2,123.9,196.5,127z"
	/>
<path class="st0" d="M171.7,281.7"/>
<path class="st0" d="M122.6,626c-2.7-6.1-5.7-12.1-9.2-17.9c-14.4-24.2-28.2-49-37-75.8c-8.4-22.8-17.6-45.4-22.9-69.2
	c-1-4.7-2.3-9.6-3-14.5c0.6,5.1,2,10.2,3.1,15.3c5.3,23.8,14.5,46.4,22.9,69.2c8.8,26.8,22.6,51.6,37,75.8
	c3.5,5.7,6.4,11.8,9.2,17.9c4,9,5.6,18.8,6.9,28.6c0-0.1,0-0.1,0-0.2C128.4,645.3,126.7,635.2,122.6,626z"/>
<path class="st0" d="M110.5,340c-0.5,5.6-0.3,11.3-1.2,16.8c-1.1,7-4.9,13.3-7,20c-4.2,12.6-6.9,25.7-8.2,38.9
	c-0.4,4.7-1.6,9.4-1.5,14.1c0,0.4,0.1,0.8,0.2,1.1c0-4.6,1.1-9.2,1.5-13.8c1.3-13.2,4.1-26.3,8.2-38.9c2.2-6.7,5.9-12.9,7-20
	c0.9-5.6,0.6-11.2,1.2-16.8c0.5-5.2,0.7-10.5,0.4-15.7c-0.1,0-0.1,0.1-0.1,0.1C111.1,330.5,111,335.3,110.5,340z"/>
<path class="st0" d="M198.2,175.9c0-3.6,0-7.1,0-10.7c0-0.1,0-0.2,0-0.3C198.2,168.5,198.2,172.2,198.2,175.9z"/>
<path class="st0" d="M196.9,237.8c0.2-2.5,0.4-4.9,0.7-7.4c0.2-1.9,0.3-3.7,0.4-5.6c-0.1,1.6-0.2,3.3-0.4,4.9
	C197.3,232.4,197,235.1,196.9,237.8z"/>
<path class="st0" d="M340.1,520.8c-7.5,20.4-16.2,40.4-24.3,60.6c-5.1,13.1-6.9,27-6.9,40.9c0-13.7,1.8-27.4,6.9-40.2
	c8.1-20.2,16.8-40.2,24.3-60.6c10.8-27.1,21-54.4,28.4-82.6c1-4.1,1.5-8.2,1.6-12.4c-0.2,3.9-0.7,7.9-1.6,11.7
	C361.1,466.4,350.9,493.8,340.1,520.8z"/>
<path class="st0" d="M201.8,125.6c-1.5-12,0.1-24.1-1.5-36.1c-0.9-9-2.1-19-8.8-25.7c0,0,0,0,0,0c6.6,6.7,7.8,16.7,8.7,25.6
	c1.6,12,0,24.1,1.5,36.1c2.4,19.8,0,39.9,2.2,59.8c0,0,0.1,0,0.1,0C201.8,165.4,204.2,145.5,201.8,125.6z"/>
<path class="st0" d="M274.8,358.3c-0.1-8.8-4.4-16.8-7.4-24.9c-3.5-8.8-6-18-8.8-27.1c-3-9.9-6.3-19.7-8-29.9c0,0-0.1,0-0.1,0
	c1.6,10.5,5.1,20.5,8.1,30.6c2.8,9.1,5.3,18.2,8.8,27.1c3,8.1,7.3,16,7.4,24.9c0,3.4,0.3,6.9,0.2,10.2
	C275.2,365.6,274.9,361.9,274.8,358.3z"/>
<path class="st0" d="M339.4,382.4c-1.4-4.2-4.4-7.6-6.7-11.4c-10.3-17-20-34.5-28.6-52.4c-0.8-2-1.1-4.1-1.5-6.3c0,0-0.1,0-0.1,0
	c0.4,2.4,0.7,4.7,1.6,7c8.6,17.9,18.4,35.3,28.6,52.4c2.3,3.8,5.3,7.2,6.7,11.4c0,0.1,0.1,0.3,0.1,0.4
	C339.5,383.1,339.5,382.8,339.4,382.4z"/>
<path class="st0" d="M172,210.7c3.5,0.3,6.9,0.4,10.4,0.1c-1.1-3.8-5.5-3.9-8.7-4.1c-5.5-0.1-10.9,0.4-16.1,2
	c-1.7,0.2-1.5,2.2-2,3.4c6.6,0.7,13.1,1.5,19.7,2.4C174,213.4,173.3,211.7,172,210.7z"/>
<path class="st0" d="M207.1,326c-2.1-11.4-3.8-23-4.5-34.6c-1.1-11.8-0.4-23.6-0.8-35.5c0,0,0,0.1,0,0.1c0.3,12-0.3,24.1,0.8,36.1
	c0.7,11.6,2.4,23.1,4.5,34.6c1.3,7.6,3.3,15.1,4,22.8c0,0,0,0,0.1,0C210.5,341.6,208.4,333.9,207.1,326z"/>
<path class="st0" d="M167.5,220.3c-4.5-0.1-8.7-1.7-13.1-2.4c-1.6-0.4-2.9,0.7-4.2,1.3c2.6,1.5,5.4,2.9,8.4,3.4
	c8.6,1.4,17.7,1.3,25.8-2.1c-0.1-0.6-0.3-1.9-0.5-2.5C178.5,219.1,173.1,220.8,167.5,220.3z"/>
<path class="st0" d="M184.5,69.6c-4.5-2-9.7-2.9-14.7-2c-5.9,0.8-10.3,6.1-10.7,11.9c-0.8,8-3.4,16.6,0.2,24.3
	c2.1,5.1,8.6,4.9,13.2,5.1c6.1-0.3,13.6-0.4,17.5-5.8c0.4-8.2,1.1-16.4,0.9-24.6C191.1,74.4,187.9,71.2,184.5,69.6z M188.2,84.4
	c-0.4,5.8,0.1,11.8-1.4,17.5c-4.8,3.6-11.2,3.5-17,3.4c-3.9,0-9.2-1.9-9-6.6c-0.2-6.7,0.2-13.6,1.9-20.1c0.7-3.2,3.2-5.8,6.2-6.8
	c5-1.4,10.5-0.8,15.2,1.4C188.2,75.3,188.3,80.4,188.2,84.4z"/>
<path class="st0" d="M197.1,280.9c0-5.8,0.1-11.7,0.1-17.5C197.1,269.2,197.1,275,197.1,280.9z"/>
<path class="st1" d="M310,641.6c-0.7-6.4-1.1-12.8-1.1-19.3c-0.1-14,1.7-27.9,6.9-40.9c8.1-20.2,16.8-40.2,24.3-60.6
	c10.8-27,21-54.4,28.4-82.6c0.9-3.9,1.5-7.8,1.6-11.7c0.3-11.7-2.6-23.6-7.2-34.3c-4.2-9.5-8.3-19.2-13.9-28
	c-7.5-13.1-15.8-25.6-23.4-38.5c-2.9-4.8-6.4-9.6-11.5-12.4c-3.5-1.9-7.6-1.2-11.5-1c0.3,2.2,0.7,4.3,1.5,6.3
	c8.6,17.9,18.3,35.4,28.6,52.4c2.3,3.8,5.3,7.2,6.7,11.4c0.1,0.4,0.1,0.7,0.1,1.1c0.2,1.6-1.2,2.9-1.9,4.3
	c-6-6.4-10.2-14.2-14.6-21.7c-7.4-14.2-15.9-27.8-22.6-42.3c-6.1-14-11.7-28.6-21.5-40.4c-7.1-7.9-18.6-8.3-28.3-7
	c1.6,10.2,4.9,20,8,29.9c2.8,9.1,5.3,18.3,8.8,27.1c3,8.1,7.3,16.1,7.4,24.9c0.1,3.6,0.4,7.3,0.2,10.9c-0.1,3-0.6,6-2,8.8
	c-0.7-0.5-2.1-1.6-2.8-2.1c-0.5-10,0.2-20.5-3.6-30c-9.3-22.3-15.4-45.8-22-69c-2.6-9.4-4.2-20.2-12.2-26.7
	c-8.4-5.5-19.9-5.7-28.6-0.9c-2.5,1.2-1.7,4.4-2,6.6c0.4,11.9-0.3,23.7,0.8,35.5c0.7,11.6,2.4,23.2,4.5,34.6
	c1.3,7.9,3.4,15.6,4.1,23.5c0,0,0,0-0.1,0c0,0.2,0.1,0.5,0.1,0.7c-1.2,0.3-2.4,0.6-3.7,1c-2.8-8.1-4.1-16.7-6-25
	c-2.1-10.9-3.6-21.9-4.3-33c-0.1-4.1-0.1-8.2-0.1-12.3c0-5.8,0.1-11.7,0.1-17.5c0-5.8-0.1-11.6-0.3-17.5c-0.2-2.7-0.1-5.4,0.1-8.1
	c0.1-2.7,0.4-5.4,0.7-8.1c0.2-1.6,0.3-3.2,0.4-4.9c0.2-4.8,0.1-9.6,0.2-14.4c0-0.9,0-1.9,0-2.8c0-10.6-0.1-21.2,0-31.7
	c0-3.7,0-7.3,0-11c0.1-7.3-1-14.5-0.9-21.7c0.1-5.4-0.5-10.8-0.8-16.2c-0.2-3.2-0.4-6.3-0.3-9.5c0-0.9,0-1.7,0-2.6
	c-0.1-7.2-0.9-14.4-1.1-21.6c-0.5-7.8-1.7-15.9-6.2-22.4c-2.9-4.3-8.5-5.3-13.3-5.3c-6.6-0.1-12.7,4-16,9.5
	c-4.3,7.1-5.6,15.5-6.3,23.6c-1,12.4-2.7,24.7-3.2,37.1c-0.5,13.3-3.4,26.3-5.4,39.4c-2.9,14.3-5.5,28.7-7.8,43.1
	c-1.2,11.2-4.1,22.2-5.7,33.3c-2,10.7-4,21.4-7.3,31.8c-4.1,12.1-4.7,25-6.3,37.6c-1.8,12.7-1.9,25.6-3,38.4
	c-0.4,4.2-2,8.1-3.7,11.9c-3,6.5-4.6,13.5-6.8,20.3c-2.4,7.3-2.9,15-4.4,22.5c-1.5,7.1-1.1,14.5-3.9,21.3c-1.1-1.3-3.2-2.2-3-4.2
	c0-0.1,0-0.2,0-0.3c-0.1-0.3-0.2-0.7-0.2-1.1c-0.1-4.7,1.1-9.4,1.5-14.1c1.3-13.2,4-26.3,8.2-38.9c2.1-6.7,5.9-13,7-20
	c0.9-5.5,0.7-11.2,1.2-16.8c0.5-4.7,0.6-9.5,0.5-14.2c-2.6,1.9-5,4.1-6.7,7c-6.7,10-14,19.5-20,29.9c-7.7,13.5-14.7,27.4-21.4,41.4
	c-4.6,10.5-9.7,21.5-12.3,33.3c-0.7,3.7-0.6,7.5-0.1,11.2c0.7,4.9,2,9.8,3,14.5c5.3,23.8,14.5,46.4,22.9,69.2
	c8.8,26.8,22.6,51.6,37,75.8c3.5,5.8,6.5,11.8,9.2,17.9c4.1,9.2,5.8,19.3,7,29.2c0,0.1,0,0.1,0,0.2c0,0.2,0.1,0.4,0.1,0.6
	c1.8,16.6,3,33.3,2.3,50h195.3c-4.4-12.4-8.8-24.8-11.9-37.6C312.7,659.7,310.6,650.7,310,641.6z M157.6,208.7
	c5.2-1.6,10.6-2.1,16.1-2c3.2,0.2,7.6,0.3,8.7,4.1c-3.5,0.3-6.9,0.2-10.4-0.1c1.3,1,2,2.7,3.3,3.8c-6.6-0.9-13.1-1.7-19.7-2.4
	C156.1,210.9,155.9,208.9,157.6,208.7z M158.6,222.6c-3-0.5-5.8-1.9-8.4-3.4c1.3-0.6,2.6-1.7,4.2-1.3c4.4,0.7,8.6,2.3,13.1,2.4
	c5.6,0.5,11-1.2,16.4-2.3c0.2,0.6,0.4,1.9,0.5,2.5C176.3,223.9,167.2,224,158.6,222.6z M190,103.1c-3.9,5.4-11.4,5.5-17.5,5.8
	c-4.6-0.2-11.1,0-13.2-5.1c-3.6-7.7-1-16.3-0.2-24.3c0.4-5.8,4.8-11.1,10.7-11.9c5-0.9,10.2,0,14.7,2c3.4,1.6,6.6,4.8,6.4,8.9
	C191.1,86.7,190.4,94.9,190,103.1z"/>
<path class="st1" d="M184.1,73.2c-4.7-2.2-10.2-2.8-15.2-1.4c-3,1-5.5,3.6-6.2,6.8c-1.7,6.5-2.1,13.4-1.9,20.1
	c-0.2,4.7,5.1,6.6,9,6.6c5.8,0.1,12.2,0.2,17-3.4c1.5-5.7,1-11.7,1.4-17.5C188.3,80.4,188.2,75.3,184.1,73.2z"/>
<path d="M204,185.3C204,185.3,203.9,185.3,204,185.3c-2.3-19.9,0.1-40-2.3-59.8c-1.5-12,0.1-24.1-1.5-36.1c-0.9-9-2.1-18.9-8.7-25.6
	c-10.7-8.5-28.8-6.2-36.1,5.7c-6.7,12.6-7.7,27.1-8.4,41.1c-1.9,18.5-3.2,37.1-5.9,55.6c-1.2,6.3-3,12.5-4.2,18.9l-0.4,1.8l-1.6,9.6
	l1.6-9.6l-1,5.2c-2.1,16.4-4.7,32.8-7.7,49c-2.4,11.1-3.7,22.4-6.8,33.3c-1.8,6.5-3.9,12.9-5,19.6c-1,5.5-1.3,11.1-2.8,16.6
	c-1.2,4.7-5.1,8-8.1,11.6c-6,6.6-10.1,14.6-15.2,21.9c-5.7,8.2-11,16.7-15.5,25.6c-11.5,20-21.1,41.1-28,63.1
	c-3.6,11.7-0.3,23.9,2.8,35.3c2.7,10.6,5.7,21.2,9.6,31.5c4.1,10.2,7.1,20.7,11.1,30.9c3.6,9.1,6.4,18.5,10.4,27.5
	c6.7,14.7,14.3,28.9,22.2,42.9c5.9,10.2,12.6,20.1,16.7,31.2c6,15.4,6.2,32.1,7.6,48.3c0.8,8.8,0.3,17.6,0.6,26.4h4.6
	c0-0.3,0-0.5,0-0.8h-0.1c0.7-16.9-0.5-33.8-2.3-50.6c-1.3-9.8-2.9-19.6-6.9-28.6c-2.8-6.1-5.7-12.2-9.2-17.9
	c-14.4-24.2-28.2-49-37-75.8c-8.4-22.8-17.6-45.4-22.9-69.2c-1.1-5-2.5-10.2-3.1-15.3c-0.6-4-0.7-8,0-12
	c2.6-11.8,7.7-22.8,12.2-33.9c6.7-14,13.8-27.9,21.4-41.4c6.1-10.4,13.4-19.9,20-29.9c1.7-2.8,4.1-5.1,6.8-7.1c0,0.5,0,1,0.1,1.5
	c0,0,0.1-0.1,0.1-0.1c0.3,5.2,0.1,10.5-0.4,15.7c-0.6,5.6-0.3,11.2-1.2,16.8c-1.1,7.1-4.8,13.3-7,20c-4.1,12.6-6.9,25.7-8.2,38.9
	c-0.4,4.6-1.5,9.2-1.5,13.8c0.5,1.3,1.9,2.1,2.8,3.1c2.9-6.8,2.4-14.2,3.9-21.3c1.5-7.5,2-15.2,4.4-22.5c2.2-6.8,3.8-13.8,6.8-20.3
	c1.7-3.8,3.3-7.7,3.7-11.9c1.1-12.8,1.3-25.7,3-38.4c1.6-12.6,2.3-25.5,6.3-37.6c3.3-10.4,5.3-21.1,7.3-31.8
	c1.6-11.2,4.5-22.1,5.7-33.3c2.3-14.4,4.9-28.8,7.8-43.1c1.9-13.1,4.8-26.1,5.4-39.4c0.5-12.4,2.2-24.7,3.2-37.1
	c0.9-7.4,2.2-15.8,6.5-22.9c3.3-5.5,9.4-9.6,16-9.5c4.8,0,10.4,1,13.3,5.3c4.5,6.6,5.7,14.7,6.2,22.4c0.3,7.4,1.1,14.9,1.1,22.3
	c0,1.1,0,2.2,0,3.3c-0.1,3,0.1,5.9,0.3,8.8c0.4,5.1,0.9,10.3,0.8,15.5c-0.1,7.4,1,14.7,0.9,22c0,0.1,0,0.3,0,0.4c0,0.1,0,0.2,0,0.3
	c0,3.6,0,7.1,0,10.7c0,10.5,0,21.1,0,31.6c0,0,0,0.1,0,0.1c0,0.2,0,0.4,0,0.6c0,0.7,0,1.5,0,2.2c0,4.8,0.1,9.6-0.2,14.4
	c-0.1,1.9-0.2,3.7-0.4,5.6c-0.3,2.4-0.5,4.9-0.7,7.4c-0.1,2.5-0.2,4.9-0.1,7.4c0.3,6,0.3,12.1,0.3,18.2c0,5.8-0.1,11.7-0.1,17.5
	c0,3.9,0,7.7,0.1,11.6c0.6,11.1,2.1,22.1,4.3,33c2,8.3,3.2,16.9,6,25c1.2-0.3,2.4-0.7,3.6-1c-0.8-7.8-2.8-15.2-4-22.8
	c-2.1-11.5-3.8-23-4.5-34.6c-1.1-12-0.5-24.1-0.8-36.1c0,0,0-0.1,0-0.1c0-0.2,0-0.4,0-0.6c0.2-2.3-0.6-5.5,2-6.7
	c8.7-4.8,20.3-4.6,28.6,0.9c8.1,6.5,9.6,17.4,12.2,26.7c6.6,23.2,12.7,46.6,22,69c3.9,9.5,3.2,20,3.6,30c0.7,0.5,2.1,1.6,2.8,2.1
	c1.3-2.6,1.8-5.3,2-8.1c0.1-3.4-0.2-6.9-0.2-10.2c-0.1-8.9-4.4-16.8-7.4-24.9c-3.5-8.9-6-18-8.8-27.1c-3-10.1-6.5-20.1-8.1-30.6
	c0,0,0.1,0,0.1,0c0-0.2-0.1-0.5-0.1-0.7c9.8-1.3,21.3-0.9,28.4,7c9.8,11.9,15.4,26.5,21.5,40.4c6.8,14.5,15.2,28.2,22.6,42.3
	c4.4,7.5,8.6,15.3,14.6,21.7c0.5-1.2,1.7-2.3,1.9-3.6c0-0.1,0-0.3-0.1-0.4c-1.4-4.2-4.4-7.6-6.7-11.4c-10.2-17.1-20-34.5-28.6-52.4
	c-0.9-2.3-1.2-4.6-1.6-7c0,0,0.1,0,0.1,0c0-0.2-0.1-0.5-0.1-0.7c3.8-0.1,8-0.8,11.6,1c5.1,2.7,8.5,7.6,11.5,12.4
	c7.7,12.9,16,25.5,23.4,38.5c5.6,8.8,9.7,18.5,13.9,28c4.7,10.9,7.7,23,7.2,35c-0.1,4.2-0.6,8.3-1.6,12.4
	c-7.4,28.2-17.6,55.5-28.4,82.6c-7.5,20.4-16.2,40.4-24.3,60.6c-5,12.9-6.9,26.5-6.9,40.2c0,6.2,0.4,12.4,1.1,18.6
	c0.7,9.1,2.8,18.1,5.5,26.8c3.2,13,7.6,25.7,12.1,38.3h-0.2c0.1,0.2,0.2,0.5,0.2,0.7h5.4c-1.8-4.7-3.2-9.5-5.1-14.2
	c-3.4-8.7-5.4-17.9-8.2-26.8c-3.8-12.3-5.7-25.1-5.8-38c0-8.8-0.6-17.7,1.5-26.3c3.4-17.4,11.8-33.3,18.3-49.7
	c7.4-17.9,13.9-36,21-54c7.1-20.3,15-40.5,19.5-61.6c3-18-2.3-36.2-9.5-52.6c-6.6-15.9-16.2-30.3-25-45c-4.7-8.4-9.3-17-15.7-24.3
	c-2.9-3.2-6.1-6.3-10.1-7.9c-4.8-1.6-9.9-0.3-14.8,0c-3.8-6.9-7.2-14-11.6-20.5c-3.7-5.5-7.3-11.8-13.9-14.2
	c-7.1-2.9-14.8-2.3-22.3-2c-2.6,0.5-3.5-2.4-4.2-4.3c-2-5.7-3.5-11.9-7.4-16.8c-3.9-5-10.1-7.4-16.1-8.8c-6.8-1.5-13.8-0.5-20.5,0.7
	c-0.1-5.1,0-10.1,0.5-15.1c1-10.9-0.1-21.8,0.9-32.7L204,185.3C204,185.4,204,185.3,204,185.3z M203.6,182.7l0.5,16.9L203.6,182.7z"
	/>
<path d="M136.8,185.1l-0.3,1.8L136.8,185.1C136.9,185.1,136.9,185.1,136.8,185.1z"/>
<path d="M141.1,166.2c2.7-18.5,4-37.1,5.9-55.6c0.7-14,1.7-28.5,8.4-41.1c7.3-11.9,25.4-14.2,36.1-5.7c0,0,0-0.1-0.1-0.1
	c-10.7-8.4-28.8-6.2-36.1,5.7c-6.7,12.6-7.7,27.1-8.4,41.1c-1.9,18.6-3.2,37.2-5.9,55.6c-1.1,5.8-2.7,11.6-3.9,17.5l-0.3,1.5
	c0,0,0,0,0.1,0C138.1,178.7,139.9,172.5,141.1,166.2z"/>
<path d="M415.2-215.5c0.2-4.6-2.8-8.6-6.8-10.6c3.9,2,6.8,6,6.6,10.5"/>
<path d="M171.7,281.7c-0.9,0-1.9,0-2.8,0C169.9,281.7,170.8,281.7,171.7,281.7z"/>
<path d="M203.8,249.3c8.7-4.8,20.2-4.6,28.6,0.9c8,6.5,9.6,17.3,12.2,26.7c6.6,23.2,12.7,46.7,22,69c3.8,9.5,3.1,20,3.6,30
	c0.7,0.5,2.1,1.6,2.8,2.1c1.4-2.8,1.9-5.7,2-8.8c-0.2,2.8-0.7,5.5-2,8.1c-0.7-0.5-2.1-1.6-2.8-2.1c-0.4-10,0.3-20.5-3.6-30
	c-9.3-22.4-15.4-45.8-22-69c-2.6-9.3-4.1-20.2-12.2-26.7c-8.3-5.5-19.9-5.7-28.6-0.9c-2.6,1.2-1.8,4.4-2,6.7c0,0.2,0,0.4,0,0.6
	C202.1,253.7,201.3,250.5,203.8,249.3z"/>
<path d="M50.6,437.4c2.6-11.8,7.7-22.8,12.3-33.3c6.7-14,13.7-27.9,21.4-41.4c6-10.4,13.3-19.9,20-29.9c1.7-2.8,4-5.1,6.7-7
	c0-0.5,0-1-0.1-1.5c-2.7,2-5.1,4.3-6.8,7.1c-6.6,10-13.9,19.5-20,29.9c-7.6,13.5-14.7,27.4-21.4,41.4c-4.5,11.1-9.6,22.1-12.2,33.9
	c-0.7,4-0.6,8,0,12C50,444.9,49.9,441.1,50.6,437.4z"/>
<path d="M95.8,435.4c2.8-6.8,2.4-14.2,3.9-21.3c1.5-7.5,2-15.2,4.4-22.5c2.2-6.8,3.8-13.8,6.8-20.3c1.7-3.8,3.3-7.7,3.7-11.9
	c1.1-12.8,1.2-25.7,3-38.4c1.6-12.6,2.2-25.5,6.3-37.6c3.3-10.4,5.3-21.1,7.3-31.8c1.6-11.1,4.5-22.1,5.7-33.3
	c2.3-14.4,4.9-28.8,7.8-43.1c2-13.1,4.9-26.1,5.4-39.4c0.5-12.4,2.2-24.7,3.2-37.1c0.7-8.1,2-16.5,6.3-23.6c3.3-5.5,9.4-9.6,16-9.5
	c4.8,0,10.4,1,13.3,5.3c4.5,6.5,5.7,14.6,6.2,22.4c0.3,7.2,1,14.4,1.1,21.6c0-7.4-0.8-14.9-1.1-22.3c-0.5-7.7-1.7-15.8-6.2-22.4
	c-2.9-4.3-8.5-5.3-13.3-5.3c-6.6-0.1-12.7,4-16,9.5c-4.3,7.1-5.6,15.5-6.5,22.9c-1,12.4-2.7,24.7-3.2,37.1
	c-0.6,13.3-3.5,26.3-5.4,39.4c-2.9,14.3-5.5,28.7-7.8,43.1c-1.2,11.2-4.1,22.1-5.7,33.3c-2,10.7-4,21.4-7.3,31.8
	c-4,12.1-4.7,25-6.3,37.6c-1.7,12.7-1.9,25.6-3,38.4c-0.4,4.2-2,8.1-3.7,11.9c-3,6.5-4.6,13.5-6.8,20.3c-2.4,7.3-2.9,15-4.4,22.5
	c-1.5,7.1-1,14.5-3.9,21.3c-0.9-1-2.3-1.8-2.8-3.1c0,0.1,0,0.2,0,0.3C92.6,433.2,94.7,434.1,95.8,435.4z"/>
<path d="M91.7,626c0-0.2-0.1-0.4-0.1-0.6c1.8,16.8,3,33.7,2.3,50.6H94C94.7,659.3,93.5,642.6,91.7,626z"/>
<path d="M277.5,637.7c-2.7-8.7-4.8-17.7-5.5-26.8c-0.6-6.2-1-12.4-1.1-18.6c0,6.4,0.4,12.9,1.1,19.3c0.6,9.1,2.7,18.1,5.5,26.8
	c3,12.8,7.4,25.2,11.9,37.6h0.2C285.1,663.4,280.7,650.7,277.5,637.7z"/>
<path d="M314.1,313.3c5.1,2.8,8.6,7.6,11.5,12.4c7.6,12.9,15.9,25.4,23.4,38.5c5.6,8.8,9.7,18.5,13.9,28c4.6,10.7,7.5,22.5,7.2,34.3
	c0.5-12-2.5-24.1-7.2-35c-4.2-9.5-8.3-19.2-13.9-28c-7.4-13-15.7-25.6-23.4-38.5c-3-4.8-6.4-9.7-11.5-12.4c-3.6-1.8-7.8-1.1-11.6-1
	c0,0.2,0.1,0.5,0.1,0.7C306.5,312.1,310.6,311.4,314.1,313.3z"/>
<path d="M198.2,164.9c0-0.1,0-0.3,0-0.4c0.1-7.3-1-14.6-0.9-22c0.1-5.2-0.5-10.3-0.8-15.5c0.4,5.4,0.9,10.7,0.8,16.2
	C197.2,150.4,198.3,157.6,198.2,164.9z"/>
<path d="M198.2,207.6c0,0,0-0.1,0-0.1c0-10.5-0.1-21.1,0-31.6C198.1,186.5,198.2,197.1,198.2,207.6z"/>
<path d="M197.2,293.2c0.7,11.1,2.2,22.1,4.3,33c1.9,8.3,3.2,16.9,6,25c1.3-0.4,2.5-0.7,3.7-1c0-0.2-0.1-0.5-0.1-0.7
	c-1.3,0.3-2.4,0.7-3.6,1c-2.8-8.1-4-16.7-6-25c-2.2-10.9-3.7-21.9-4.3-33c-0.1-3.9-0.1-7.7-0.1-11.6
	C197.1,285,197.1,289.1,197.2,293.2z"/>
<path d="M278.9,283.4c9.8,11.8,15.4,26.4,21.5,40.4c6.7,14.5,15.2,28.1,22.6,42.3c4.4,7.5,8.6,15.3,14.6,21.7
	c0.6-1.4,2.1-2.7,1.9-4.3c-0.2,1.3-1.4,2.4-1.9,3.6c-6-6.4-10.2-14.2-14.6-21.7c-7.4-14.1-15.8-27.8-22.6-42.3
	c-6.1-13.9-11.7-28.5-21.5-40.4c-7.1-7.9-18.6-8.3-28.4-7c0,0.2,0.1,0.5,0.1,0.7C260.3,275.1,271.8,275.5,278.9,283.4z"/>
<path d="M196.8,245.9c0.3,5.8,0.3,11.7,0.3,17.5c0-6.1-0.1-12.1-0.3-18.2c-0.1-2.5,0-5,0.1-7.4C196.7,240.5,196.6,243.2,196.8,245.9
	z"/>
<path d="M198,224.8c0.3-4.8,0.2-9.6,0.2-14.4C198.2,215.2,198.2,220,198,224.8z"/>
<g>
	<path class="st2" d="M135.5,194.8l1-5.2l0.4-1.8c1.2-6.4,3-12.6,4.2-18.9c2.7-18.5,4-37.1,5.9-55.6c0.5-10.3,1.2-20.9,4.2-30.7
		c-3-4.5-4.7-9.8-4.7-15.6c0-15.4,12.6-28,28-28c15.4,0,28,12.6,28,28c0,5.1-1.4,9.9-3.8,14c0.8,3.7,1.2,7.5,1.6,11.1
		c1.6,12,0,24.1,1.5,36.1c2.4,19.8,0,39.9,2.2,59.8c0,0,0.1,0,0.1,0c0,0,0,0.1,0,0.1l0.5,7.2c-1,10.9,0.1,21.8-0.9,32.7
		c-0.5,5-0.6,10-0.5,15.1c6.7-1.2,13.7-2.2,20.5-0.7c3.3,0.8,6.7,1.9,9.8,3.5V30.6c0-11.2-9.2-20.4-20.4-20.4h-77.5
		c-11.2,0-20.4,9.2-20.4,20.4v231c0,5.7,2.4,10.8,6.2,14.6c2.9-10.6,4.2-21.6,6.6-32.4C130.8,227.6,133.4,211.2,135.5,194.8z"/>
	<path class="st3" d="M174.4,39c-15.4,0-28,12.6-28,28c0,5.8,1.8,11.1,4.7,15.6c1.1-3.6,2.4-7,4.2-10.4c1.1-1.7,2.4-3.3,3.9-4.6
		c0-0.2,0-0.4,0-0.6c0-6.1,3.6-11.4,8.8-13.8c-5.2,2.4-8.8,7.7-8.8,13.8c0,0.2,0,0.4,0,0.6c8-7.2,21.1-8.2,30.2-2.5
		c-0.7-5.3-4-9.7-8.7-11.9c4.6,2.2,8,6.6,8.7,11.9c0.7,0.4,1.4,0.9,2,1.4c3.9,4,6,9.1,7.1,14.5c2.4-4.1,3.8-8.9,3.8-14
		C202.3,51.6,189.8,39,174.4,39z M174.2,58v-9.6V58z"/>
	<path d="M204.1,202.2l-0.5-16.9L204.1,202.2z"/>
</g>
</svg>
