<?xml version="1.0" encoding="utf-8"?>
<!-- Generator: Adobe Illustrator 27.0.0, SVG Export Plug-In . SVG Version: 6.00 Build 0)  -->
<svg version="1.1" id="Laag_1" xmlns="http://www.w3.org/2000/svg" xmlns:xlink="http://www.w3.org/1999/xlink" x="0px" y="0px"
	 viewBox="0 0 185.14 225.96" style="enable-background:new 0 0 185.14 225.96;" xml:space="preserve">
<style type="text/css">
	.st0{fill:none;}
	.st1{fill:#2A4B9B;}
	.st2{fill:none;stroke:#000000;stroke-miterlimit:10;}
</style>
<path d="M64.21,102.34c-2.01,0.08-3.62,1.21-5.34,2.04c-0.36-0.24-0.28-0.61-0.3-0.96c1.63-1.14,3.35-2.06,5.35-2.34
	c0.46-0.07,0.87-0.13,0.99-0.67c0.49-0.52,0.28-1.16,0.28-1.75c0.01-31.38,0.01-62.77,0-94.15c0-0.59,0.21-1.23-0.28-1.75
	c-0.35-2.03-2.01-1.64-3.29-1.64C42.59,1.07,23.56,1.09,4.53,1.09c-0.33,0-0.67,0-1,0.03C1.39,1.3,1.2,1.49,1.2,3.66
	c-0.01,7.5,0,14.99,0,22.49c0,36.04,0,72.08,0,108.12c0,2.69,0.16,2.85,2.83,2.85c5.83,0,11.65-0.08,17.48,0.02
	c5.94,0.1,11.87-0.56,17.8-0.27c7.05,0.35,14.09,0.1,21.13,0.26c1.36,0.03,1.74-0.22,0.95-1.52c-1.93-3.17-3.68-6.45-5.68-9.58
	c-2.23-3.48-4.04-7.01-3.45-11.33c0.39-2.82,0.77-5.61,2.78-7.85c0.32,0.2,0.49,0.48,0.53,0.85c-2.51,3.8-2.74,8.04-1.9,12.28
	c0.35,1.74,1.65,3.31,2.58,4.92c0.76,1.33,1.75,2.56,2.38,3.95c0.72,1.59,1.95,2.61,3.25,3.63c0.03,0.38-0.05,0.69-0.35,0.98
	c-0.35,0.33-0.12,0.53,0.28,0.59c0.15,0.29,0.29,0.58,0.44,0.87c0,0.1,0.05,0.15,0.15,0.15c0.67,1.33,1.35,2.66,2.02,3.99
	c-0.31,0.02-0.61,0.03-0.92,0.05c-0.42-0.71-1.08-0.84-1.85-0.84c-4.64-0.01-9.28-0.05-13.92-0.09c-2.25-0.23,0.34,1.14-0.46,1.39
	c-1.97-0.51-3.89-1.28-5.98-1.24c-0.3-0.83-0.79-0.7-1.35-0.29c-2,0-4,0.01-6,0.01c-0.52-0.43-1-0.51-1.37,0.18
	c-1.89,0.15-3.77,0.38-5.61,0.87c-0.27-0.07-0.52-0.04-0.7,0.2c-0.66,0.15-1.31,0.31-1.97,0.46c-0.28-0.06-0.52-0.02-0.69,0.23
	c-0.48,0.1-0.96,0.19-1.43,0.28c0.05-0.37,0.1-0.75,0.15-1.12c0.2-0.04,0.41-0.08,0.61-0.11c0.12-0.07,0.24-0.15,0.36-0.22
	c0.13-0.03,0.25-0.05,0.38-0.08c0.49-0.06,1.11,0.21,1.38-0.53c-0.54-0.31-1.06-0.15-1.58-0.06c-7.1,0.01-14.2,0.03-21.31,0.04
	c-0.84,0-1.46-0.37-1.77-1.17c-0.3-0.78-0.39-1.6-0.39-2.45C0.01,90.95,0.01,47.29,0.01,3.63C0.01,0.65,0.65,0,3.6,0
	c19.59,0,39.18,0,58.77,0c2.96,0,3.59,0.64,3.59,3.62c0,31.61,0,63.21,0.01,94.82c0,1.13-0.4,2.5,1.26,2.94
	c-0.03,0.37-0.05,0.74-0.08,1.11c-0.53-0.05-1.05-0.1-1.58-0.16C65.12,101.47,64.66,101.48,64.21,102.34z"/>
<path d="M67.17,102.49c0.03-0.37,0.05-0.74,0.08-1.11c3.55,1.14,7.2,2.04,10.21,4.43c0.31,0.24,0.57,0.28,0.89,0.07
	c5.23-3.24,10.71-2.31,16.14-0.77c2.61,0.74,5.03,0.87,7.69,0.1c3.63-1.06,7.33-0.34,10.98,0.38c2,0.4,4.01,0.76,6.02,1.14
	c0.17,0.26,0.42,0.3,0.69,0.22c4.85,1.19,9.69,2.43,14.56,3.56c3.62,0.84,7.26,1.56,10.91,2.3c1.19,0.24,2.21,0.99,3.46,1.01
	c1.67,0.49,3.36,0.22,5.05,0.15c0,0-0.03,0.08-0.03,0.08c-0.01,0.31-0.03,0.63-0.04,0.94c-0.55,0.03-1.09,0.05-1.64,0.08
	c-0.45,0-0.97-0.25-1.28,0.32c-0.46,0.11-0.92,0.23-1.39,0.34c-0.33-0.14-0.66-0.28-0.99-0.42c-0.11-0.08-0.22-0.17-0.33-0.25
	c-0.11-0.03-0.22-0.06-0.33-0.08c-0.11-0.08-0.22-0.17-0.33-0.25c-0.1-0.04-0.21-0.07-0.31-0.11c-0.52-0.7-1.13-1.1-2.01-0.61
	c-0.21-0.04-0.43-0.08-0.64-0.12c-0.23-0.54-0.57-0.63-1.02-0.24c-0.22-0.03-0.43-0.07-0.65-0.1c-0.89-0.76-1.95-0.88-3.06-0.8
	c-4.45-0.68-8.77-1.92-13.15-2.92c-5.42-1.24-10.86-2.41-16.32-3.42c-2.52-0.47-5.13-0.35-7.69-0.05c-0.38,0.04-0.88,0.02-0.94,0.48
	c-0.05,0.47,0.48,0.54,0.81,0.7c2.71,1.39,5.69,2.02,8.59,2.85c3.92,1.12,7.91,1.89,11.97,2.32c0.36,0.04,1.02-0.21,0.9,0.57
	c-0.09,0.59-0.48,0.82-1.08,0.75c-3.97-0.45-7.95-0.92-11.72-2.31c-1.46-0.54-2.95-0.99-4.44-1.29c-2.29-0.46-4.34-1.51-6.52-2.2
	c-3.07-0.97-6.09-2.14-9.32-2.52c-0.93-0.11-1.68-0.88-2.68-0.68c-0.2-0.27-0.45-0.29-0.74-0.17c-0.84,0-1.68,0-2.53,0
	c-0.28-0.12-0.53-0.1-0.74,0.15c-1.67,0.22-3.11,0.99-4.83,2.01c5.75,4.29,9.74,10.28,15.87,13.9c0.7,0.42,1.45,0.74,2.3,0.9
	c0.48,0.09,1.61,0.03,1.24,1.07c-0.3,0.85-1.08,0.44-1.69,0.26c-2.08-0.61-3.93-1.67-5.62-3.02c-1.87-1.49-3.54-3.18-5.18-4.9
	c-4.37-4.57-9.19-8.55-14.91-11.34C70.04,103.25,68.43,103.4,67.17,102.49z"/>
<path d="M26.27,155.72c-1.88,0-3.77-0.01-5.65-0.01c-0.3-0.32-0.66-0.28-1.04-0.17c-0.43-0.05-0.87-0.09-1.3-0.14
	c-0.18-0.26-0.42-0.29-0.7-0.21c-3.97-1.19-5.08-2.55-4.99-6.1c0.3,0,0.59,0,0.89,0c0.79-0.24,0.95-0.97,1.22-1.61
	c1.42-1.89,3.49-1.56,5.36-1.36c4.63,0.49,9,1.75,12.2,5.5c0.04,0.04,0.12,0.06,0.13,0.11c0.7,3.01,3.52,3.53,5.71,4.68
	c3.75,1.98,6.86,4.94,10.76,6.7c2.92,1.32,6.12,1.95,8.85,3.7c3.71,2.37,7.27,4.94,10.6,7.82c1.38,1.2,2.74,2.4,3.93,3.78
	c-0.02,0.64-0.45,0.67-0.93,0.63c-2.15-1.46-3.65-3.65-5.77-5.18c-4.49-3.25-8.88-6.59-14.27-8.36c-4.54-1.49-8.46-4.22-12.35-6.96
	c-1.92-1.35-4.09-2.32-6.31-3.13c-0.44-0.41-0.88-0.39-1.34-0.03c-1.21,0.06-2.42,0.12-3.62,0.18
	C27.16,155.44,26.68,155.33,26.27,155.72z M32.13,154c-0.21-0.89-0.6-1.43-1.05-1.91c-3.54-3.74-8.15-4.75-13.02-4.9
	c-1.77-0.05-3.26,1.77-3.47,3.69c-0.17,1.5,0.55,2.27,2.74,2.95c0.37,0.11,0.75,0.21,1.13,0.27C22.98,154.85,27.5,154.35,32.13,154z
	"/>
<path d="M47.26,139.58c0.8-0.25-1.79-1.62,0.46-1.39c0.14,0.93,1,0.73,1.54,0.87c3.53,0.87,7.15,1.32,10.52,2.89
	c2.61,1.22,5.05,2.75,7.71,3.87c0.14,0.08,0.28,0.16,0.42,0.24c0.02,0.04,0.03,0.08,0.06,0.12c0.02,0.02,0.06,0.01,0.09,0.01
	c-0.06-0.04-0.11-0.07-0.17-0.11c-0.07-0.15-0.14-0.3-0.21-0.46c-0.22-0.71-0.75-1.21-1.16-1.8c-1.05-1.54-2.45-2.86-3.03-4.7
	c0.31-0.02,0.61-0.03,0.92-0.05c0.82,1.1,1.74,2.14,2.46,3.31c2.42,3.9,5.58,6.9,10.02,8.36c0.02,0.04,0.03,0.09,0.06,0.12
	c0.02,0.02,0.06,0.01,0.1,0.01c-0.05-0.04-0.1-0.09-0.15-0.13c0.06-1.38-0.52-2.37-1.61-3.23c-1.42-1.13-2.99-2.25-3.72-3.95
	c-1.66-3.9-5.01-6.06-8.22-8.4c-0.28-0.2-0.62-0.21-0.95-0.08c-0.1,0-0.15-0.05-0.15-0.15c0.06-0.39-0.07-0.7-0.44-0.87
	c-0.4-0.05-0.63-0.25-0.28-0.59c0.31-0.29,0.38-0.6,0.35-0.98c2.28,1.68,4.57,3.36,6.82,5.07c1.34,1.02,2.58,2.48,3.19,4.12
	c0.7,1.88,2.06,3.21,3.5,4.3c1.78,1.34,2.59,3.11,3.25,5.04c1.92,5.61,4.66,10.79,7.91,15.72c0,0.46-0.27,0.65-0.69,0.69
	c0,0,0,0,0,0c0.03-0.46-0.2-0.67-0.64-0.69c-0.1-0.12-0.21-0.25-0.31-0.37c0-0.48-0.04-0.93-0.67-0.97
	c-2.05-2.36-3.24-5.22-4.28-8.08c-1.06-2.92-2.72-4.91-5.56-6.25c-4.67-2.22-9.15-4.86-13.8-7.11c-2.55-1.23-5.05-2.74-8.01-2.9
	c-0.19-0.25-0.43-0.27-0.7-0.18c-0.88-0.16-1.75-0.31-2.63-0.47c-0.17-0.26-0.41-0.3-0.69-0.24
	C48.12,139.97,47.69,139.78,47.26,139.58z"/>
<path d="M76.22,181.74c0.43-0.04,0.7,0.23,1,0.49c4.18,3.57,8.38,7.12,12.54,10.71c0.87,0.75,1.63,1.65,2.43,2.48
	c-0.34,0.48-0.85,0.27-1.3,0.31c-0.57-0.32-1.03-0.76-1.34-1.34c-0.04-0.62-0.49-0.66-0.96-0.67c-3.85-3.22-7.71-6.43-11.55-9.66
	c-0.37-0.31-0.83-0.59-0.84-1.18C76.2,182.49,76.21,182.11,76.22,181.74z"/>
<path d="M174.82,145.71c-0.08-0.81-0.83-1.43-0.69-2.31c0.49-0.49,0.09-0.59-0.31-0.69c-1.86-5.89-4.24-11.62-5.6-17.68
	c0.67,0.13,0.61,1.34,1.56,1.04c1.27,2.4,1.4,5.15,2.33,7.66c1.42,3.85,2.66,7.78,3.97,11.67
	C175.7,145.63,175.29,145.8,174.82,145.71z"/>
<path d="M90.9,195.71c0.45-0.04,0.95,0.18,1.3-0.31c0.84,0.01,1.26,0.67,1.68,1.21c3,3.85,6.83,6.78,10.61,9.79
	c0.69,0.55,1.34,1.13,2.01,1.69c0.03,0.48,0.03,0.94-0.63,0.96c-1.91-0.83-3.26-2.41-4.82-3.69c-2.94-2.41-5.96-4.76-8.24-7.88
	C92.29,196.77,91.21,196.65,90.9,195.71z"/>
<path d="M169.79,126.07c-0.95,0.3-0.9-0.91-1.56-1.04c-2.11-2.82-3.37-6.29-6.7-8.18c-2.45-1.4-5.13-1.42-7.75-1.85
	c0.01-0.31,0.03-0.63,0.04-0.94c1.11,0.01,2.21,0.01,3.32,0.02c0.18,0.27,0.42,0.31,0.71,0.22c2.9,0.27,5.28,1.58,7.12,3.79
	C166.97,120.5,169,122.92,169.79,126.07z"/>
<path d="M174.82,145.71c0.47,0.09,0.88-0.08,1.27-0.31c1.45,4.21,2.88,8.42,4.35,12.62c0.4,1.14,0.88,2.25,1.32,3.38
	c-0.44,0-0.88,0-1.32,0C178.51,156.19,176.46,151.03,174.82,145.71z"/>
<path d="M105.87,209.05c0.66-0.02,0.66-0.48,0.63-0.96c3.67,2.99,7.34,5.98,11.01,8.97c-0.01,0.43-0.24,0.65-0.67,0.67
	c-1.95-0.54-3.07-2.24-4.57-3.38C110.07,212.68,107.66,211.22,105.87,209.05z"/>
<path d="M180.45,161.4c0.44,0,0.88,0,1.32,0c1.35,3.2,2.37,6.51,3.24,9.87c0.08,0.32,0.13,0.66,0.09,0.99
	c-0.05,0.45,0.3,1.19-0.36,1.27c-0.66,0.09-0.53-0.68-0.68-1.12C182.85,168.73,181.65,165.07,180.45,161.4z"/>
<path d="M116.84,217.74c0.43-0.02,0.66-0.24,0.67-0.67c0.64-0.01,0.97,0.48,1.35,0.86c1.96,1.95,3.91,3.91,5.86,5.86
	c0.16,0.16,0.35,0.29,0.45,0.48c0.29,0.49,0.98,1.06,0.42,1.57c-0.42,0.39-1-0.2-1.38-0.57c-1.73-1.7-3.47-3.4-5.15-5.16
	C118.32,219.31,117.33,218.76,116.84,217.74z"/>
<path d="M149.47,115.74c0.46-0.11,0.92-0.23,1.38-0.34c0.43,0.21,0.86,0.42,1.29,0.63c0.79,0.76,1.59,1.5,2.37,2.28
	c0.32,0.32,0.88,0.67,0.29,1.2c-0.5,0.45-0.92,0.11-1.27-0.26C152.32,117.92,150.85,116.88,149.47,115.74z"/>
<path d="M76.22,181.74c-0.01,0.38-0.01,0.75-0.02,1.13c-0.68-0.19-1.31-0.44-1.65-1.13c0.12-1.02-0.57-1.04-1.28-1.03
	c-0.46-0.2-0.8-0.55-1.05-0.97c0.5,0.07,0.64-0.42,0.96-0.63C74.18,180,75.41,180.62,76.22,181.74z"/>
<path d="M13.95,144.74c1.05-0.96,1.56-2.47,3.05-2.97c0.2-0.01,0.41-0.02,0.61-0.03l0,0c-0.01,0.32-0.02,0.64-0.02,0.96
	c-0.34,0.23-0.67,0.46-1.01,0.7c-0.1,0.09-0.21,0.18-0.31,0.27c-0.94,0.33-1.06,1.43-1.81,1.94
	C14.16,145.38,13.99,145.1,13.95,144.74z"/>
<path d="M85.85,167.43c0.42-0.04,0.69-0.23,0.69-0.69c0.66,0.56,1.31,1.15,1.99,1.68c0.37,0.29,0.46,0.64,0.25,0.99
	c-0.25,0.42-0.64,0.32-1,0.1C86.95,169,86.13,168.46,85.85,167.43z"/>
<path d="M22.31,139.18c-0.05,0.37-0.1,0.75-0.15,1.12c-0.64,0.39-1.31,0.71-2.06,0.8c-0.48-0.11-0.95-0.22-1.43-0.33
	C19.67,139.75,21.05,139.59,22.31,139.18z"/>
<path d="M58.58,103.42c0.02,0.35-0.06,0.72,0.3,0.96c-0.29,0.79-1,1.02-1.69,1.28c-0.2-0.08-0.41-0.17-0.61-0.25
	c-0.07-0.07-0.14-0.14-0.2-0.2C56.94,104.4,57.63,103.76,58.58,103.42z"/>
<path d="M18.67,140.77c0.48,0.11,0.95,0.22,1.43,0.33c-0.38,0.54-0.94,0.78-1.55,0.92c-0.31-0.09-0.62-0.19-0.94-0.28c0,0,0,0,0,0
	c0.02-0.1,0.03-0.21,0.01-0.31C17.8,140.93,18.24,140.85,18.67,140.77z"/>
<path d="M13.95,144.74c0.03,0.36,0.21,0.64,0.5,0.85c-0.18,0.6-0.36,1.21-0.54,1.81c-0.1,0.01-0.2,0.02-0.3,0.01
	c-0.04-0.4-0.23-0.66-0.66-0.67C12.96,145.91,12.91,145.06,13.95,144.74z"/>
<path d="M55.55,107.71c-0.04-0.37-0.22-0.66-0.53-0.85c0.19-0.76,0.73-1.24,1.35-1.65c0.07,0.07,0.14,0.14,0.2,0.2
	c0.08,0.2,0.17,0.41,0.25,0.61C56.4,106.58,55.98,107.15,55.55,107.71z"/>
<path d="M12.96,146.74c0.43,0.01,0.62,0.26,0.66,0.67c-0.05,0.56-0.09,1.11-0.14,1.67c-0.3,0-0.59,0-0.89,0
	C12.44,148.26,12.79,147.52,12.96,146.74z"/>
<path d="M139.8,112.76c1.11-0.08,2.17,0.04,3.06,0.8C141.77,113.52,140.63,113.72,139.8,112.76z"/>
<path d="M73.18,179.11c-0.32,0.2-0.46,0.7-0.96,0.63c-0.46-0.04-0.82-0.2-0.92-0.71c0.48,0.04,0.91,0,0.93-0.63
	C72.74,178.37,73.04,178.63,73.18,179.11z"/>
<path d="M13.48,149.08c0.05-0.56,0.09-1.11,0.14-1.67c0.1,0,0.2,0,0.3-0.01c0.26,0.02,0.52,0.05,0.78,0.07
	C14.43,148.11,14.27,148.84,13.48,149.08z"/>
<path d="M145.16,114.02c0.88-0.48,1.49-0.09,2.01,0.61C146.46,114.56,145.73,114.56,145.16,114.02z"/>
<path d="M73.27,180.71c0.71-0.01,1.4,0.01,1.28,1.03C73.91,181.67,73.5,181.3,73.27,180.71z"/>
<path d="M23.47,138.18c0.52-0.1,1.04-0.25,1.58,0.06c-0.27,0.74-0.89,0.47-1.38,0.53C23.6,138.57,23.53,138.38,23.47,138.18z"/>
<path d="M39.93,138.06c0.56-0.41,1.05-0.54,1.35,0.29C40.8,138.36,40.27,138.64,39.93,138.06z"/>
<path d="M64.21,102.34c0.46-0.87,0.91-0.87,1.38-0.01C65.13,102.34,64.67,102.34,64.21,102.34z"/>
<path d="M152.15,116.03c-0.43-0.21-0.86-0.42-1.29-0.63c0.31-0.57,0.83-0.32,1.28-0.32C152.14,115.4,152.15,115.72,152.15,116.03z"
	/>
<path d="M17.61,141.74c0.31,0.09,0.62,0.19,0.94,0.28c-0.17,0.44-0.59,0.52-0.96,0.68C17.6,142.38,17.6,142.06,17.61,141.74z"/>
<path d="M143.5,113.66c0.45-0.4,0.78-0.3,1.02,0.24C144.12,114.06,143.73,114.22,143.5,113.66z"/>
<path d="M84.23,165.39c0.63,0.04,0.67,0.49,0.67,0.97C84.41,166.22,84.2,165.89,84.23,165.39z"/>
<path d="M88.6,193.7c0.47,0.02,0.92,0.05,0.96,0.67C89.07,194.38,88.71,194.21,88.6,193.7z"/>
<path d="M48.56,140.16c0.28-0.06,0.52-0.01,0.69,0.24C48.81,140.9,48.67,140.57,48.56,140.16z"/>
<path d="M51.88,140.87c0.27-0.09,0.52-0.07,0.7,0.18C52.2,141.56,52.03,141.27,51.88,140.87z"/>
<path d="M85.21,166.74c0.44,0.02,0.68,0.23,0.64,0.69C85.42,167.4,85.21,167.17,85.21,166.74z"/>
<path d="M173.83,142.71c0.4,0.1,0.79,0.2,0.31,0.69C173.84,143.26,173.79,143.01,173.83,142.71z"/>
<path d="M56.83,106.02c-0.08-0.2-0.17-0.41-0.25-0.61c0.2,0.08,0.41,0.17,0.61,0.25C57.06,105.78,56.94,105.9,56.83,106.02z"/>
<path d="M17.63,141.43c0.01,0.1,0.01,0.21-0.01,0.31c-0.2,0.01-0.41,0.02-0.61,0.03C17.05,141.37,17.37,141.46,17.63,141.43z"/>
<path d="M147.49,114.73c0.11,0.08,0.22,0.17,0.33,0.25C147.61,115.03,147.52,114.92,147.49,114.73z"/>
<path d="M148.15,115.07c0.11,0.08,0.22,0.17,0.33,0.25C148.28,115.37,148.19,115.25,148.15,115.07z"/>
<path d="M23.28,138.84c-0.12,0.07-0.24,0.15-0.36,0.22C22.98,138.88,23.07,138.76,23.28,138.84z"/>
<path d="M16.27,143.66c0.1-0.09,0.21-0.18,0.31-0.27C16.57,143.59,16.48,143.7,16.27,143.66z"/>
<path class="st0" d="M56.37,105.21c-0.62,0.42-1.16,0.89-1.35,1.65c-2.01,2.23-2.39,5.02-2.78,7.84c-0.59,4.33,1.22,7.85,3.45,11.33
	c2,3.12,3.75,6.4,5.68,9.58c0.79,1.3,0.41,1.55-0.95,1.52c-7.04-0.16-14.08,0.09-21.13-0.26c-5.92-0.29-11.86,0.37-17.8,0.27
	c-5.82-0.1-11.65-0.02-17.48-0.02c-2.67,0-2.82-0.16-2.83-2.85c0-36.04,0-72.08,0-108.12c0-7.5,0-14.99,0-22.49
	c0-2.17,0.19-2.36,2.33-2.54c0.33-0.03,0.66-0.03,1-0.03c19.03,0,38.06-0.01,57.09,0.02c1.28,0,2.94-0.39,3.29,1.64
	c-0.44,0.54-0.25,1.17-0.25,1.77c-0.01,31.37-0.01,62.75,0,94.12c0,0.59-0.19,1.23,0.25,1.77c-0.12,0.54-0.53,0.61-0.99,0.67
	c-2,0.28-3.72,1.2-5.35,2.34C57.63,103.76,56.94,104.4,56.37,105.21z M22.88,33.2c0.01,5.78,4.48,10.26,10.22,10.23
	c5.69-0.03,10.16-4.59,10.14-10.34c-0.01-5.62-4.66-10.28-10.27-10.28C27.36,22.81,22.87,27.43,22.88,33.2z M22.88,88.03
	c0,5.77,4.49,10.34,10.13,10.33c5.64-0.01,10.22-4.63,10.23-10.3c0.01-5.72-4.52-10.3-10.19-10.31
	C27.33,77.74,22.88,82.24,22.88,88.03z M22.88,60.51c-0.02,5.83,4.52,10.48,10.21,10.45c5.49-0.03,10.13-4.72,10.14-10.25
	c0.02-5.77-4.43-10.32-10.11-10.34C27.27,50.35,22.9,54.67,22.88,60.51z M33.01,8.11c-1.06-0.04-1.57,0.61-1.58,1.51
	c-0.01,0.88,0.51,1.64,1.48,1.66c0.89,0.02,1.6-0.42,1.64-1.46C34.59,8.76,34.08,8.18,33.01,8.11z"/>
<path d="M64.91,100.4c-0.44-0.54-0.25-1.17-0.25-1.77c-0.01-31.37-0.01-62.75,0-94.12c0-0.59-0.19-1.23,0.25-1.77
	c0.49,0.52,0.28,1.16,0.28,1.75c0.01,31.38,0.01,62.77,0,94.15C65.2,99.24,65.41,99.89,64.91,100.4z"/>
<path class="st0" d="M76.88,150.74c-4.44-1.46-7.6-4.45-10.02-8.36c-0.72-1.16-1.64-2.21-2.46-3.31c-0.67-1.33-1.35-2.66-2.02-3.99
	c0.33-0.14,0.67-0.13,0.95,0.08c3.21,2.33,6.55,4.5,8.22,8.4c0.73,1.71,2.29,2.83,3.72,3.95C76.36,148.37,76.94,149.36,76.88,150.74
	L76.88,150.74z"/>
<path class="st0" d="M63.49,139.12c0.59,1.84,1.98,3.16,3.03,4.7c0.4,0.59,0.93,1.1,1.16,1.8c-0.07,0.06-0.13,0.13-0.19,0.2
	c-2.65-1.12-5.1-2.65-7.71-3.87c-3.37-1.57-6.99-2.02-10.52-2.89c-0.55-0.14-1.4,0.07-1.54-0.87c4.64,0.03,9.28,0.07,13.92,0.09
	C62.4,138.28,63.06,138.41,63.49,139.12z"/>
<path d="M61.79,134.05c0.38,0.17,0.5,0.48,0.44,0.87C62.09,134.63,61.94,134.34,61.79,134.05z"/>
<path class="st0" d="M32.13,154c-4.63,0.35-9.15,0.85-13.67,0.1c-0.38-0.06-0.76-0.16-1.13-0.27c-2.19-0.67-2.9-1.45-2.74-2.95
	c0.21-1.92,1.7-3.74,3.47-3.69c4.86,0.15,9.47,1.16,13.02,4.9C31.53,152.57,31.92,153.11,32.13,154z"/>
<path d="M67.67,145.63c0.07,0.15,0.14,0.3,0.21,0.46l0.02-0.02c-0.14-0.08-0.28-0.16-0.42-0.24
	C67.54,145.76,67.61,145.69,67.67,145.63z"/>
<path d="M67.88,146.08c0.06,0.04,0.11,0.07,0.17,0.11c-0.03,0-0.07,0.01-0.09-0.01c-0.03-0.03-0.04-0.08-0.06-0.12
	C67.9,146.06,67.88,146.08,67.88,146.08z"/>
<path d="M76.88,150.74c0.05,0.04,0.1,0.09,0.15,0.13c-0.03,0-0.08,0.01-0.1-0.01C76.91,150.83,76.9,150.78,76.88,150.74
	L76.88,150.74z"/>
<path d="M22.88,33.2c-0.01-5.77,4.48-10.39,10.09-10.39c5.6,0,10.25,4.66,10.27,10.28c0.01,5.75-4.46,10.31-10.14,10.34
	C27.36,43.46,22.89,38.98,22.88,33.2z M42.37,33.22c0.01-5.43-4.02-9.54-9.38-9.54c-5.23,0-9.4,4.15-9.43,9.38
	c-0.03,5.3,4.16,9.64,9.36,9.68C38.19,42.78,42.35,38.58,42.37,33.22z"/>
<path d="M22.88,88.03c0-5.79,4.45-10.29,10.17-10.28c5.67,0.01,10.19,4.59,10.19,10.31c-0.01,5.67-4.59,10.29-10.23,10.3
	C27.37,98.37,22.88,93.8,22.88,88.03z M42.37,87.99c0-5.28-4.07-9.5-9.23-9.56c-5.25-0.06-9.59,4.3-9.59,9.61
	c0.01,5.35,4.11,9.45,9.47,9.44C38.43,97.49,42.37,93.48,42.37,87.99z"/>
<path d="M22.88,60.51c0.02-5.84,4.39-10.16,10.24-10.14c5.69,0.02,10.13,4.56,10.11,10.34c-0.02,5.54-4.65,10.23-10.14,10.25
	C27.4,70.99,22.86,66.34,22.88,60.51z M42.37,60.56c0-5.29-4.1-9.48-9.29-9.51c-5.28-0.02-9.5,4.18-9.52,9.49
	c-0.02,5.32,4.17,9.59,9.42,9.59C38.31,70.14,42.37,65.99,42.37,60.56z"/>
<path class="st1" d="M33.01,8.11c1.07,0.07,1.58,0.65,1.54,1.71c-0.03,1.04-0.75,1.48-1.64,1.46c-0.98-0.02-1.49-0.78-1.48-1.66
	C31.44,8.72,31.96,8.07,33.01,8.11z"/>
<path class="st0" d="M42.37,33.22c-0.01,5.37-4.18,9.56-9.45,9.52c-5.2-0.04-9.4-4.38-9.36-9.68c0.03-5.23,4.2-9.38,9.43-9.38
	C38.35,23.68,42.38,27.78,42.37,33.22z M32.81,34.67c0.38,0,0.66,0.02,0.94,0c0.59-0.05,1.35,0.25,1.68-0.4
	c0.35-0.67-0.43-1.04-0.73-1.54c-0.11-0.19-0.25-0.37-0.38-0.54c-1.25-1.61-1.35-1.63-2.56,0.03c-0.47,0.64-1.52,1.23-1.15,2.05
	C31,35.12,32.13,34.5,32.81,34.67z"/>
<path class="st0" d="M42.37,87.99c0,5.49-3.94,9.49-9.35,9.5c-5.35,0-9.46-4.09-9.47-9.44c-0.01-5.31,4.34-9.67,9.59-9.61
	C38.29,78.49,42.37,82.71,42.37,87.99z M35.46,87.38c0.12-0.58-0.21-0.7-0.54-0.74c-0.49-0.06-0.99-0.13-1.48-0.08
	c-0.95,0.1-2.42-0.51-2.73,0.41c-0.37,1.09,1.07,1.88,1.68,2.82c0.19,0.29,0.55,0.49,0.85,0.27C34.23,89.34,34.82,88.26,35.46,87.38
	z"/>
<path class="st0" d="M42.37,60.56c0,5.43-4.06,9.57-9.39,9.57c-5.26,0-9.45-4.27-9.42-9.59c0.02-5.3,4.24-9.51,9.52-9.49
	C38.27,51.08,42.37,55.27,42.37,60.56z M33.93,60.33c0,0.81-0.02,1.48,0.01,2.14c0.01,0.37-0.02,0.87,0.54,0.83
	c0.41-0.03,0.44-0.44,0.44-0.77c0.01-0.66,0.1-1.34-0.01-1.99c-0.15-0.9,0.56-2.47-0.54-2.52C33.48,57.97,34.17,59.62,33.93,60.33z
	 M32.07,60.67c-0.27-0.91,0.28-2.71-0.4-2.61c-1.05,0.15-0.46,1.74-0.46,2.69c0,0.83-0.56,2.34,0.43,2.38
	C32.41,63.15,31.81,61.53,32.07,60.67z"/>
<path d="M32.81,34.67c-0.68-0.17-1.8,0.45-2.2-0.41c-0.38-0.82,0.68-1.4,1.15-2.05c1.21-1.67,1.31-1.64,2.56-0.03
	c0.14,0.18,0.27,0.35,0.38,0.54c0.3,0.5,1.07,0.87,0.73,1.54c-0.33,0.64-1.09,0.35-1.68,0.4C33.47,34.68,33.19,34.67,32.81,34.67z"
	/>
<path d="M35.46,87.38c-0.64,0.88-1.23,1.96-2.22,2.69c-0.3,0.22-0.67,0.02-0.85-0.27c-0.61-0.95-2.05-1.73-1.68-2.82
	c0.31-0.92,1.78-0.31,2.73-0.41c0.48-0.05,0.99,0.01,1.48,0.08C35.25,86.68,35.58,86.8,35.46,87.38z"/>
<path d="M33.93,60.33c0.24-0.71-0.45-2.35,0.44-2.31c1.1,0.05,0.39,1.63,0.54,2.52c0.1,0.65,0.02,1.32,0.01,1.99
	c-0.01,0.34-0.03,0.75-0.44,0.77c-0.56,0.03-0.52-0.46-0.54-0.83C33.91,61.8,33.93,61.14,33.93,60.33z"/>
<path d="M32.07,60.67c-0.26,0.86,0.34,2.48-0.43,2.45c-0.99-0.04-0.43-1.54-0.43-2.38c0-0.95-0.59-2.54,0.46-2.69
	C32.35,57.96,31.8,59.76,32.07,60.67z"/>
<circle class="st2" cx="33" cy="33.2" r="9.96"/>
<circle class="st2" cx="33" cy="60.67" r="9.96"/>
<circle class="st2" cx="32.96" cy="88.31" r="9.96"/>
</svg>
