<?xml version="1.0" encoding="utf-8"?>
<!-- Generator: Adobe Illustrator 27.0.0, SVG Export Plug-In . SVG Version: 6.00 Build 0)  -->
<svg version="1.1" id="Laag_1" xmlns="http://www.w3.org/2000/svg" xmlns:xlink="http://www.w3.org/1999/xlink" x="0px" y="0px"
	 viewBox="0 0 802 829" style="enable-background:new 0 0 802 829;" xml:space="preserve">
<style type="text/css">
	.st0{fill:none;stroke:#000000;stroke-width:2;stroke-miterlimit:10;}
	.st1{stroke:#000000;stroke-width:2;stroke-miterlimit:10;}
	.st2{fill:#FFFFFF;stroke:#000000;stroke-width:2;stroke-miterlimit:10;}
</style>
<path class="st0" d="M521.7,42c0-0.2,0-0.4,0.1-0.5c93-13,186-26.1,279-39.1c0-0.3,0.1-0.6,0.1-0.8c-0.6-0.2-1.2-0.5-1.8-0.5
	c-4.4,0.5-8.7,1.1-13.1,1.7c-13.7,1.9-27.4,3.9-41.2,5.9c-11.3,1.6-22.5,3.1-33.8,4.7c-13.7,1.9-27.4,3.9-41.2,5.9
	c-11.3,1.6-22.5,3.1-33.8,4.6c-12.5,1.8-25,3.6-37.5,5.3c-13.6,1.9-27.3,3.7-40.9,5.6c-12.5,1.8-25,3.6-37.5,5.3
	c-4.8,0.7-4.8,0.6-4.8,5.2c0,41.8,0,83.7,0.1,125.5c0,2.4-0.7,3.4-3.1,3.9c-5.7,1.1-11.3,2.9-16.9,4c-3,0.6-4.3,2-4.4,5
	c-0.1,1.5-0.5,3.7-1.5,4.1c-2.5,1.1-5.4,2.5-8.1,0.9c-2.9-1.7-5.9-2.8-9.2-3.3c-4.1-0.7-8.2-2-12.4-2.2c-4.3-0.1-8.6,0.9-13,1.3
	c-2,0.2-3.6,0-5.1-2c-6.3-8.7-13.1-17-21.2-24.1c-7.5-6.5-15.7-12-24.9-15.8c-12-5-24.4-5.2-36.9-2.9c-8.2,1.5-16.4,3.3-24.6,4.9
	c-16.4,3.2-32.9,6.3-49.4,9.4c-17.9,3.4-35.9,6.8-53.8,10.2c-18.1,3.4-36.2,6.9-54.3,10.3c-15.2,2.9-30.3,5.5-45.5,8.6
	c-21.8,4.5-43.4,9.6-65.2,13.9c-16.3,3.2-29.2,11.5-39.2,24.3c-7.5,9.6-12.7,20.5-16.7,32.1c-4.9,14.1-7.4,28.7-8.5,43.5
	c-1.2,16.1-0.5,32.2,1.9,48.3c2.2,14.6,5.3,28.9,10.1,42.8c4.6,13.6,10.2,26.9,17.9,39.1c4,6.4,8.6,12.4,13,18.5
	c5.9,8.3,13.4,15.1,21.4,21.2c7.6,5.8,16.1,10.4,25.6,12.4c5.7,1.2,11.7,2,17.5,1.8c6.9-0.3,13.8-1.8,20.7-2.8
	c15-2.2,30-4.4,45.1-6.5c1.3-0.2,3,0.1,4.1,0.8c10.3,6.7,18.6,15.4,25.1,25.7c3.3,5.2,5.7,10.9,9.1,16c8.8,12.8,19.7,23.7,32.8,32.2
	c1.4,0.9,2.6,2.3,3.3,3.8c7.5,14.7,15.7,29,25.8,42.1c12.1,15.6,26.5,28.6,44.2,37.5c6.5,3.3,12.1,7.4,16.5,13
	c6.1,7.6,12.2,15.3,17,23.7c18.9,33.7,37.3,67.7,55.8,101.7c4,7.3,7.8,14.7,11.7,22c0.3,0.5,1.1,0.8,1.6,1.2c0.3-0.8,0.3-1,0.2-1.2
	c-6-11.1-12-22.2-17.9-33.3c-5.3-9.9-10.5-19.9-15.8-29.8c-7.8-14.3-15.6-28.6-23.5-42.8c-7.2-13-14.4-26.1-23.7-37.7
	c-5.2-6.5-10.7-12.7-18.2-16.4c-17.5-8.7-32.1-20.8-44.3-35.9c-11.3-13.9-20.1-29.3-28.3-45.2c-0.7-1.4-2-2.9-3.3-3.7
	c-10.7-6.8-19.7-15.4-27.6-25.2c-2.5-3.1-5-6.3-6.7-9.9c-9.6-19.6-23.4-35-43-45.1c-10.2-5.2-18.8-12.2-25.1-21.9
	c-6.3-9.8-13.9-18.3-23.9-24.6c-3.7-2.3-7.4-4.8-11.1-7.2c-6.6-4.5-13.2-9-18.3-15.4c-2.9-3.5-4.8-7.5-4.4-12.1
	c0.3-3.9,1-7.7,4.5-10.3c1.2-0.9,2.4-2.4,3.8-2.7c4.8-1.1,9.8-2.7,14.6-2.5c9.3,0.4,18.5,1.6,27.7,3.2c7.6,1.3,15.3,2.7,22.4,5.6
	c14,5.7,26.6,14.1,38.5,23.3c14.6,11.3,28.9,23,43.5,34.4c8.6,6.7,18.4,11,29.4,12.1c3.7,0.4,7.6,1.1,11.1-1.5
	c4.9-3.6,9.9-7,14.8-10.5c6.4-4.6,8.1-10,5.5-17.4c-1.4-3.8-3-7.4-4.5-11.1c-4-9.7-8.3-19.2-11.9-29.1c-1.7-4.8-2.8-10.1-2.5-15.1
	c0.8-12.2,10.8-23.7,22.7-26.5c11.8-2.8,23.8-4.6,35.6-7.2c10.3-2.2,20.6-3,30.9-0.8c7.9,1.7,15.8,4,23.5,6.7
	c10.3,3.5,20,3.4,29.5-2.2c3.1-1.8,6.4-3.2,9.6-4.8c7.5-3.7,15.4-5.9,23.6-6.7c10.9-1,19.9,3.5,28.1,10.2
	c7.4,6.1,13.3,13.5,18.3,21.6c0.7,1.1,1.4,1.5,2.8,1.4c15.9-0.5,28.7,5.3,37.1,19.1c2.7,4.4,4.2,9.5,6.3,14.3c0.3,0.8,1,1.5,1.8,1.9
	c4,2.3,8.3,4.2,12.1,6.8c7.8,5.4,12.7,13.3,14.5,22.3c1.4,7.4,1.2,15.2,1,22.9c-0.3,9.4-1.4,18.7-2.1,28.1
	c-0.9,11.8-2.1,23.5-2.6,35.3c-0.7,16.8-1.2,33.6-1.3,50.4c-0.1,5.4,0.4,10.9,1.9,16.1c2.6,9,5.6,17.9,9.2,26.6
	c13.6,32.8,27.5,65.4,41.3,98.1c2.9,6.9,6,13.7,9,20.5c0.3,0,0.6-0.1,0.9-0.1c0-0.6,0.1-1.3-0.1-1.9c-3.3-7.8-6.7-15.5-10-23.3
	c-14.6-34.8-29.1-69.6-43.6-104.4c-3.7-8.9-6.4-18.1-6.9-27.9c-0.9-18.2,0-36.3,1.2-54.4c1-14.9,2.7-29.8,3.7-44.7
	c0.7-10.1,0.9-20.3,1-30.4c0.1-3.7-0.3-7.5-1.1-11.2c-3.1-13.8-11.6-23.3-24.4-29c-2.6-1.1-4.1-2.5-4.8-5.3
	c-1.8-6.8-5.3-12.7-10-17.9c-8.8-9.7-19.9-13.8-32.8-13.6c-2.3,0-3.3-1.3-3.7-2.9c-0.2-1,0.6-2.4,1.3-3.4c1.9-3.1,4-6.1,6-9.2
	c0.2-0.4,0.1-1,0.3-1.5c0.3-0.8,0.6-1.5,0.9-2.3c0.7-1.6,1.4-3.2,2.1-4.9c0.4-0.8,0.8-1.6,1.1-2.5c0.4-1.1,0.8-2.3,1.3-3.4
	c0.3-0.7,0.8-1.6,1.4-1.8c0.6-0.2,1.7,0.1,2.2,0.6c1,0.9,1.9,2.1,2.6,3.3c0.8,1.3,1.7,1.7,3.3,1.3c14.8-3.5,29.7-6.9,44.6-10.4
	c17.2-4.1,34.4-8.3,51.7-12.4c3-0.7,5.3-2,6.5-5.2c1.7-4.5,4.7-8.1,8.7-10.8c0.4-0.3,0.8-0.6,1.1-1c9.3-9.7,13.2-21.7,14.7-34.6
	c1.1-9.5,0.5-19-1.3-28.5c-2.6-13.6-7.7-26-15.6-37.3c-6.7-9.6-15.1-17.3-26.2-21.3c-5.2-1.8-10.7-2.9-15-6.6
	c-0.7-0.6-1.4-1.2-2.2-1.6c-1-0.4-2.2-0.9-3.2-0.7c-20.6,4.8-41.2,9.7-61.7,14.6c-4.4,1-8.8,2.1-13.4,3.2c0-43.9,0-87.3,0-131
	c1,0.2,1.7,0.4,2.5,0.6c19.8,5.2,39.6,10.4,59.4,15.6c43,11.3,86.1,22.6,129.1,33.9c4.3,1.1,4.3,1.1,4.3,5.5c0,204,0,408,0,612
	c0,1.2,0,2.3,0.1,3.5c0,0.4,0.4,0.8,0.7,1.2c0.2,0,0.4-0.1,0.6-0.1c0.1-1.2,0.2-2.4,0.2-3.6c0-179.7,0-359.3,0-539
	c0-0.9,0.1-1.8,0-2.7c-0.1-1.4,0.4-1.9,1.9-2.2c10.1-1.7,20.2-3.6,30.4-5.4c4-0.7,8.1-1.3,12.4-2.1c0,216.8,0,433.3,0,650.6
	c0.9-0.9,1.6-1.2,1.7-1.6c0.2-0.8,0.1-1.7,0.1-2.5c0-214.3,0-428.7,0-643c0-1.2,0-2.5,0-3.8c13.7-2.4,27.1-4.8,40.5-7.1
	c-0.1-0.5-0.2-1-0.3-1.5c-28.9,4.8-57.6,10.1-86.7,14.9c0-1.5,0-2.5,0-3.4c0-21.3,0-42.7,0-64c0-4.4,0-4.4,4.2-5.4
	c0.2-0.1,0.5-0.1,0.7-0.2c8.5-1.4,17-2.7,25.5-4.1c16.3-2.8,32.5-5.6,48.8-8.4c2.6-0.4,5.2-1,7.8-1.4c0-0.3-0.1-0.6-0.1-1
	c-0.8-0.1-1.6-0.3-2.4-0.2c-10.4,1.7-20.8,3.5-31.2,5.3c-16.2,2.8-32.4,5.6-48.6,8.3c-2.6,0.4-5.4,0.8-7.8,0.2
	c-19.6-5-39.2-10.2-58.7-15.3c-37.9-9.9-75.7-19.9-113.6-29.8C532.8,45,527.2,43.5,521.7,42z"/>
<path class="st1" d="M768.9,828c0-78.5,0-157,0-235.5c0-143.1,0-286.1,0-429.2c0-1.3,0.1-2.5,0.2-3.8c0.2,0,0.4,0,0.6-0.1
	c0.2,0.4,0.6,0.7,0.6,1.1c0.1,1,0,2,0,3c0,220.2,0,440.4,0,660.7c0,1.2,0,2.5,0,3.7C769.9,828,769.4,828,768.9,828z"/>
<path class="st1" d="M521.7,42c5.6,1.5,11.2,3,16.8,4.5c37.9,9.9,75.7,19.9,113.6,29.8c19.6,5.1,39.1,10.4,58.7,15.3
	c2.4,0.6,5.3,0.2,7.8-0.2c16.2-2.7,32.4-5.5,48.6-8.3c10.4-1.8,20.8-3.6,31.2-5.3c0.8-0.1,1.6,0.1,2.4,0.2c0,0.3,0.1,0.6,0.1,1
	c-2.6,0.5-5.2,1-7.8,1.4c-16.3,2.8-32.5,5.6-48.8,8.4c-8.5,1.4-17,2.8-25.5,4.1c-0.2,0-0.5,0.1-0.7,0.2c-4.2,1-4.2,1-4.2,5.4
	c0,21.3,0,42.7,0,64c0,1,0,2,0,3.4c29.1-4.8,57.9-10.1,86.7-14.9c0.1,0.5,0.2,1,0.3,1.5c-13.4,2.4-26.9,4.7-40.5,7.1
	c0,1.3,0,2.6,0,3.8c0,214.3,0,428.7,0,643c0,0.8,0.1,1.7-0.1,2.5c-0.1,0.4-0.8,0.8-1.7,1.6c0-217.3,0-433.8,0-650.6
	c-4.3,0.7-8.4,1.3-12.4,2.1c-10.1,1.8-20.2,3.6-30.4,5.4c-1.5,0.3-2,0.8-1.9,2.2c0.1,0.9,0,1.8,0,2.7c0,179.7,0,359.3,0,539
	c0,1.2-0.1,2.4-0.2,3.6c-0.2,0-0.4,0.1-0.6,0.1c-0.2-0.4-0.6-0.8-0.7-1.2c-0.1-1.2-0.1-2.3-0.1-3.5c0-204,0-408,0-612
	c0-4.4,0-4.4-4.3-5.5c-43-11.3-86.1-22.6-129.1-33.9c-19.8-5.2-39.6-10.4-59.4-15.6c-0.8-0.2-1.5-0.4-2.5-0.6c0,43.7,0,87.1,0,131
	c4.6-1.1,9-2.1,13.4-3.2c20.6-4.9,41.1-9.8,61.7-14.6c1-0.2,2.2,0.3,3.2,0.7c0.8,0.3,1.6,1,2.2,1.6c4.4,3.7,9.8,4.8,15,6.6
	c11.2,3.9,19.5,11.6,26.2,21.3c7.9,11.3,13,23.8,15.6,37.3c1.8,9.5,2.4,19,1.3,28.5c-1.5,12.9-5.5,24.9-14.7,34.6
	c-0.3,0.4-0.7,0.7-1.1,1c-4.1,2.7-7.1,6.3-8.7,10.8c-1.2,3.2-3.5,4.4-6.5,5.2c-17.2,4.1-34.4,8.3-51.7,12.4
	c-14.8,3.5-29.7,6.9-44.6,10.4c-1.6,0.4-2.5,0-3.3-1.3c-0.7-1.2-1.6-2.3-2.6-3.3c-0.5-0.5-1.6-0.8-2.2-0.6c-0.6,0.2-1.1,1.1-1.4,1.8
	c-0.5,1.1-0.8,2.3-1.3,3.4c-0.3,0.8-0.7,1.6-1.1,2.5c-0.7,1.6-1.4,3.2-2.1,4.9c-0.3,0.8-0.7,1.5-0.9,2.3c-0.2,0.5,0,1.1-0.3,1.5
	c-2,3.1-4.1,6.1-6,9.2c-0.6,1-1.5,2.4-1.3,3.4c0.4,1.6,1.4,3,3.7,2.9c12.9-0.3,24.1,3.9,32.8,13.6c4.7,5.2,8.2,11.2,10,17.9
	c0.7,2.8,2.2,4.1,4.8,5.3c12.8,5.6,21.3,15.1,24.4,29c0.8,3.6,1.2,7.4,1.1,11.2c-0.1,10.1-0.3,20.3-1,30.4
	c-1,14.9-2.7,29.8-3.7,44.7c-1.2,18.1-2.1,36.3-1.2,54.4c0.5,9.8,3.2,19,6.9,27.9c14.5,34.8,29,69.6,43.6,104.4
	c3.3,7.8,6.7,15.5,10,23.3c0.2,0.5,0.1,1.2,0.1,1.9c-0.3,0-0.6,0.1-0.9,0.1c-3-6.8-6.1-13.6-9-20.5c-13.8-32.7-27.7-65.3-41.3-98.1
	c-3.6-8.7-6.7-17.6-9.2-26.6c-1.5-5.1-1.9-10.7-1.9-16.1c0.2-16.8,0.6-33.6,1.3-50.4c0.5-11.8,1.7-23.6,2.6-35.3
	c0.7-9.4,1.8-18.7,2.1-28.1c0.2-7.6,0.5-15.4-1-22.9c-1.7-9-6.7-16.9-14.5-22.3c-3.8-2.6-8.1-4.5-12.1-6.8c-0.7-0.4-1.4-1.2-1.8-1.9
	c-2.1-4.8-3.6-9.9-6.3-14.3c-8.4-13.8-21.2-19.6-37.1-19.1c-1.4,0-2.1-0.3-2.8-1.4c-5.1-8.1-10.9-15.5-18.3-21.6
	c-8.2-6.7-17.2-11.2-28.1-10.2c-8.2,0.8-16.2,2.9-23.6,6.7c-3.2,1.6-6.5,2.9-9.6,4.8c-9.5,5.7-19.3,5.7-29.5,2.2
	c-7.7-2.6-15.5-4.9-23.5-6.7c-10.3-2.2-20.6-1.5-30.9,0.8c-11.8,2.6-23.8,4.4-35.6,7.2c-11.9,2.8-21.9,14.3-22.7,26.5
	c-0.3,5,0.8,10.4,2.5,15.1c3.5,9.8,7.9,19.4,11.9,29.1c1.5,3.7,3.2,7.3,4.5,11.1c2.7,7.4,0.9,12.8-5.5,17.4
	c-4.9,3.5-9.9,6.9-14.8,10.5c-3.5,2.5-7.4,1.8-11.1,1.5c-11-1.1-20.8-5.4-29.4-12.1c-14.6-11.4-28.9-23.1-43.5-34.4
	c-11.9-9.3-24.6-17.6-38.5-23.3c-7.1-2.9-14.8-4.3-22.4-5.6c-9.1-1.6-18.4-2.7-27.7-3.2c-4.8-0.2-9.8,1.4-14.6,2.5
	c-1.4,0.3-2.5,1.8-3.8,2.7c-3.4,2.6-4.1,6.4-4.5,10.3c-0.4,4.6,1.5,8.6,4.4,12.1c5.1,6.3,11.7,10.9,18.3,15.4
	c3.7,2.5,7.3,4.9,11.1,7.2c10,6.2,17.6,14.8,23.9,24.6c6.3,9.8,14.9,16.7,25.1,21.9c19.6,10,33.4,25.5,43,45.1
	c1.7,3.5,4.2,6.8,6.7,9.9c7.9,9.8,16.9,18.4,27.6,25.2c1.4,0.9,2.6,2.3,3.3,3.7c8.1,15.9,17,31.3,28.3,45.2
	c12.2,15,26.8,27.2,44.3,35.9c7.5,3.7,13,9.9,18.2,16.4c9.4,11.7,16.5,24.7,23.7,37.7c7.9,14.2,15.7,28.5,23.5,42.8
	c5.4,9.9,10.5,19.9,15.8,29.8c5.9,11.1,12,22.2,17.9,33.3c0.1,0.2,0.2,0.5-0.2,1.2c-0.6-0.4-1.4-0.7-1.6-1.2
	c-3.9-7.3-7.8-14.7-11.7-22c-18.5-33.9-36.9-67.9-55.8-101.7c-4.7-8.4-10.9-16.1-17-23.7c-4.4-5.5-10.1-9.7-16.5-13
	c-17.7-9-32.1-21.9-44.2-37.5c-10.1-13.1-18.4-27.3-25.8-42.1c-0.7-1.5-2-2.9-3.3-3.8c-13.1-8.5-24-19.4-32.8-32.2
	c-3.5-5-5.8-10.8-9.1-16c-6.6-10.3-14.8-19-25.1-25.7c-1.1-0.7-2.8-1-4.1-0.8c-15,2.1-30,4.3-45.1,6.5c-6.9,1-13.8,2.5-20.7,2.8
	c-5.8,0.2-11.8-0.6-17.5-1.8c-9.5-2-17.9-6.6-25.6-12.4c-8.1-6.1-15.5-12.9-21.4-21.2c-4.4-6.2-9-12.2-13-18.5
	c-7.7-12.2-13.2-25.5-17.9-39.1c-4.7-13.9-7.9-28.2-10.1-42.8c-2.4-16-3.1-32.1-1.9-48.3c1.1-14.8,3.7-29.4,8.5-43.5
	c4-11.5,9.2-22.5,16.7-32.1c10-12.8,22.9-21.1,39.2-24.3c21.8-4.3,43.4-9.4,65.2-13.9c15.1-3.1,30.3-5.8,45.5-8.6
	c18.1-3.4,36.2-6.9,54.3-10.3c17.9-3.4,35.9-6.8,53.8-10.2c16.5-3.1,32.9-6.2,49.4-9.4c8.2-1.6,16.4-3.4,24.6-4.9
	c12.5-2.3,24.9-2.1,36.9,2.9c9.2,3.8,17.4,9.2,24.9,15.8c8.1,7.1,15,15.4,21.2,24.1c1.4,2,3.1,2.2,5.1,2c4.3-0.5,8.7-1.5,13-1.3
	c4.1,0.1,8.3,1.5,12.4,2.2c3.3,0.5,6.2,1.7,9.2,3.3c2.7,1.5,5.6,0.1,8.1-0.9c0.9-0.4,1.4-2.7,1.5-4.1c0.1-3,1.4-4.4,4.4-5
	c5.7-1.1,11.3-2.8,16.9-4c2.5-0.5,3.2-1.5,3.1-3.9c-0.1-41.8-0.1-83.7-0.1-125.5c0-4.7,0-4.6,4.8-5.2c12.5-1.7,25-3.6,37.5-5.3
	c13.6-1.9,27.3-3.7,40.9-5.6c12.5-1.7,25-3.6,37.5-5.3c11.3-1.6,22.5-3.1,33.8-4.6c13.7-1.9,27.4-3.9,41.2-5.9
	c11.3-1.6,22.5-3.1,33.8-4.7c13.7-1.9,27.4-3.9,41.2-5.9c4.4-0.6,8.7-1.2,13.1-1.7c0.6-0.1,1.2,0.3,1.8,0.5c0,0.3-0.1,0.6-0.1,0.8
	c-93,13-186,26.1-279,39.1C521.7,41.6,521.7,41.8,521.7,42z M470.5,320.2c0.2-2.1,0.5-3.7,0.4-5.4c-0.7-10.9-1.1-21.8-2.4-32.6
	c-2.4-19.5-7-38.5-14.4-56.8c-9.9-24.4-22.7-47-42.9-64.5c-9.3-8.1-19.6-14.9-32-17.3c-5.5-1.1-11.3-2.2-16.8-1.5
	c-13.9,1.9-27.7,4.9-41.6,7.5c-15.2,2.9-30.4,5.8-45.7,8.7c-19.1,3.6-38.3,7.2-57.4,10.8c-17.1,3.2-34.2,6.5-51.3,9.7
	c-3.7,0.7-7.4,1.4-11.6,2.2c4.8,1,9.2,1.6,13.4,2.8c18.1,5.1,32.2,16.3,44,30.5c14.2,17.1,23.6,36.7,30.4,57.7
	c6.3,19.5,9.9,39.6,11.6,60.1c1.4,16.4,1.3,32.8-0.7,49.1c-2.1,16.8-6.2,33-13.9,48.2c-0.3,0.6,0,2,0.5,2.4c10,8,21.1,13.2,34.1,14
	c3,0.2,5.6-0.4,8.1-2.4c4-3.2,8.4-6,12.6-8.9c3.9-2.7,7.4-5.8,7-11c-0.2-2.9-1.2-5.9-2.3-8.6c-3.5-8.4-7.3-16.8-10.9-25.2
	c-3.2-7.4-6.1-15-6.8-23.1c-1.2-13.9,9.4-28.8,23.1-32.1c12.3-2.9,24.7-5,37-7.6c10-2.1,20-3,30-0.8c8.7,1.9,17.4,4.5,25.9,7.2
	c9.2,3,17.9,2.9,26.4-2.1c4.2-2.5,8.7-4.5,13.3-6.4c9.1-3.8,18.5-6.5,28.6-5.4C467.6,319.7,468.9,319.9,470.5,320.2z M160.9,375.3
	c0.2-2.8,0.6-5.7,0.6-8.6c0-13.2-1-26.4-3.4-39.4c-2.7-15-6.5-29.6-12.6-43.6c-7.1-16.5-15.8-32-28.4-45.1c-8-8.3-17-15.3-27.8-19.6
	c-13.5-5.3-26.7-4.8-39.5,2.3c-10.7,5.9-17.8,15.1-23.3,25.7c-10.2,19.4-13.9,40.5-14.5,62.1c-0.6,18,1.4,35.7,5.5,53.2
	c6,26,16,50.2,32.7,71.3c8.9,11.1,19.2,20.6,32.5,26.3c11,4.6,22.2,5.4,33.5,1.1c10-3.8,17.7-10.7,23.9-19.3
	c0.3-0.5,0.3-1.6-0.1-2.1c-5.5-7.8-12-14.4-20.1-19.6c-6.4-4.1-12.7-8.3-18.9-12.7c-5.1-3.6-9.8-7.8-13-13.3
	c-6.2-10.8-1.2-22.8,10.7-25.9c2.2-0.6,4.4-0.9,6.7-1.4c-1.2-6.6-2.1-13.2-3.5-19.7c-0.7-3.4,1.1-5.7,2.4-8.6
	c1.2,1.4,2.3,2.8,2.6,4.4c1.5,7.3,2.7,14.7,4.1,22c0.1,0.7,1.2,1.7,2,1.8c2.5,0.4,5,0.3,7.5,0.6c5.8,0.8,11.6,1.7,17.5,2.5
	c0.6-3.9-2.6-7.7,0.2-12c0.5,1.4,1,2.3,1.2,3.3c0.4,1.5,0.8,3.1,0.8,4.6c-0.1,4,2.1,5.2,5.7,5.8C150.8,372.4,155.7,374,160.9,375.3z
	 M78.7,196.9c0,0.2,0,0.3,0,0.5c1.2,0.1,2.5,0.1,3.7,0.4c11.2,2,20.8,7.4,29.9,13.8c7.3,5.2,13.4,11.7,19.1,18.5
	c12.3,14.8,21.4,31.4,28.4,49.2c5.1,13.1,9,26.5,11.7,40.4c2.6,13.8,4.4,27.7,4.7,41.7c0.2,6.6-0.2,13.3-0.5,19.9
	c-0.1,1.9,0.6,2.8,2.1,3.7c3.4,1.9,6.9,3.8,10,6.2c11.8,9,23.5,18.1,35.1,27.2c3.6,2.8,7.1,5.7,10.8,8.6c0.7-1.4,1.2-2.5,1.7-3.5
	c8.8-20.3,12-41.6,12.5-63.5c0.6-26.8-2.8-53.1-10.1-78.9c-2.1-7.3-4.7-14.5-7.1-21.6c-4.8,0.8-7.6-0.2-8-2.8
	c-0.6-3.4,2.3-3.7,4.9-4.6c-3.1-5.8-5.9-11.6-9.2-17.1c-10-17-22.5-31.8-39.9-41.8c-14.2-8.2-29.5-11.1-45.7-8
	c-13.7,2.6-27.2,5.7-40.9,8.6C87.6,194.9,83.1,195.9,78.7,196.9z M485.7,191.4c0.8,0.7,1,0.9,1.3,1.1c3,2.3,6.1,4.7,9,7
	c0.5,0.4,0.7,1.1,1.1,1.7c0.6,0.8,1.2,1.5,1.8,2.3c1,1.3,2,2.6,2.9,3.8c0.5,0.7,0.9,1.3,1.4,2c2,3,4,5.9,6,8.9
	c0.3,0.5,0.2,1.1,0.4,1.7c0.2,0.6,0.5,1.2,0.8,1.8c1.6,3.3,3.3,6.5,4.9,9.8c0.2,0.4,0,1,0.2,1.5c0.2,0.8,0.5,1.6,0.7,2.4
	c0.6,1.7,1.1,3.4,1.7,5c0.2,0.6,0.4,1.2,0.6,1.9c0.5,1.6,1,3.3,1.4,4.9c0.2,0.9,0.5,1.7,0.7,2.6c0.8,3.4,1.6,6.8,2.3,10.2
	c0.1,0.4-0.2,1-0.2,1.5c0,0.6,0.1,1.3,0.2,1.9c0.5,3.6,1.1,7.2,1.6,10.8c0.1,0.5-0.3,1.1-0.3,1.7c0,0.8,0.1,1.6,0.1,2.4
	c0.1,1.6,0.1,3.2,0.1,4.8c0,0.8,0,1.6,0,2.4c0,3.6,0,7.1-0.1,10.7c0,0.3-0.3,0.6-0.3,0.9c-0.2,1-0.4,2.1-0.5,3.1
	c-0.4,3.4-0.7,6.7-1.1,10.1c0,0.2-0.2,0.4-0.3,0.7c-0.5,2.1-1,4.2-1.6,6.8c1.9-0.3,3.1-0.5,4.3-0.8c7.2-1.8,14.4-3.9,21.7-5.5
	c5.7-1.3,10.6-4,14.7-8c9.2-8.9,13.3-20.5,15-32.9c1.3-9.4,0.9-18.9-0.9-28.3c-2.9-15-8.5-28.8-18.2-40.7c-5.3-6.4-11.3-12-19-15.4
	c-6.9-3.1-14-4.5-21.5-2.6c-6.6,1.7-13.2,3.3-19.8,4.9C493.1,189.5,489.6,190.4,485.7,191.4z M171.9,381.3c0.3-1.4,0.7-2.5,0.6-3.7
	c-0.3-12-0.1-24.1-1.2-36.1c-1.2-14.3-4.1-28.4-8.4-42.1c-6.9-22.7-16.4-44.2-31.1-63.1c-7.5-9.6-15.9-18.3-26.2-25
	c-6.2-4-12.6-7.4-19.8-9.3c-15.3-4-29.6-1.6-42.6,7.5c-10.2,7.1-17.6,16.6-23.3,27.6c-10.2,19.6-14.7,40.8-16,62.7
	c-1.3,22.9,0.9,45.5,6.4,67.8c7,28.4,18.2,54.8,36.8,77.7c11.6,14.3,25.4,25.5,43.2,31.1c7,2.2,14.2,2.5,21.4,1.4
	c10.9-1.7,20.4-6.4,28.2-14.2c3.4-3.4,6.6-7.1,9.8-10.6c-2.7-3.5-4.9-6.5-7.2-9.5c-3.2,3.4-5.9,6.8-9.1,9.7
	c-16.8,15.3-37.4,17.1-57.2,6.8c-8.3-4.3-15.4-10.1-22-16.6c-9.8-9.8-17.4-21.2-23.7-33.4c-9-17.5-15.5-35.9-18.5-55.4
	c-1.3-8.2-2.8-16.4-3.4-24.6c-1-12.7-0.8-25.5,1-38.1c1.7-12.2,4.5-24.2,9.3-35.7c5-11.8,11.3-22.6,21-31.1
	c12.2-10.7,26.3-15.2,42.5-11.5c12.2,2.8,22.3,9.4,31.3,17.7c13.8,12.8,23.7,28.3,31.4,45.2c4.8,10.7,9.3,21.5,11.7,33
	c2.4,11.5,4.5,23,6.2,34.6c0.9,5.8,0.8,11.8,0.9,17.7c0.1,4.5-0.2,9-0.2,13.5c0,0.8,0.5,1.9,1.2,2.4
	C167.1,378.9,169.3,380,171.9,381.3z M584.2,310.3c4.6-1.1,8.7-2.1,12.9-3c9-2.1,18-4.1,26.9-6.3c1.5-0.4,3.5-1.3,4.1-2.5
	c3.7-7.3,7.2-14.7,10.6-22.1c3.6-7.9,5-16.4,5.3-25c0.3-9-2.1-17.5-5.3-25.9c-0.6-1.7-1.6-1.7-3.1-1.4c-11.8,2.8-23.5,5.8-35.3,8.2
	c-4.3,0.9-6.3,2.4-6.9,7c-1.7,13.1-4.1,26.2-6.1,39.3c-1,7.1-1.7,14.2-2.4,21.3C584.6,303.2,584.4,306.5,584.2,310.3z M550.6,168
	c0.6,1,0.9,1.6,1.2,2.2c12.4,20.9,26.3,40.8,41.3,60c0.5,0.6,1.9,1.1,2.7,0.9c13.4-3.1,26.8-6.2,40.2-9.5c0.6-0.2,1.5-1.3,1.4-2
	c-0.1-2.2-0.5-4.4-0.8-6.7c-1.7-10.3-5.7-19.7-12.2-27.9c-8.3-10.7-18.6-19.1-29.9-26.4c-0.6-0.4-1.7-0.5-2.5-0.3
	c-8.4,1.9-16.8,3.9-25.2,5.8C561.5,165.4,556.2,166.6,550.6,168z M475.6,321.6c0.1-0.2,0.3-0.5,0.3-0.7c0.1-0.6,0.1-1.2,0.1-1.7
	c0.5-17-0.5-34-3.5-50.7c-5.8-32.6-15.8-63.6-36.8-90.1c-11.1-14-23.7-26-40.3-33.2c-3.4-1.5-7.1-2.4-10.7-3.5
	c-0.1,0.2-0.1,0.4-0.2,0.6c2.7,1.2,5.5,2.2,8.2,3.5c10.7,5.3,20,12.4,28.2,21.1c10.5,11,18.8,23.4,25.9,36.8
	c5.8,11.1,10.4,22.6,14.4,34.4c5.2,15.6,8.5,31.6,10.4,47.8c1.2,11,1.2,22.1,1.6,33.2C473.3,320.9,473.7,321.8,475.6,321.6z
	 M610.3,166c-0.2,0.3-0.4,0.6-0.6,0.9c12.1,9,22.3,19.6,28.9,33.4c6.5,13.5,9.6,27.7,9.9,42.6c0.3,15.1-4.3,28.9-10.4,42.4
	c4.2-3.4,7.3-7.5,9.5-12.1c5.7-12.1,7.5-24.9,6-38.2c-0.8-6.9-1.7-13.9-3.6-20.5c-5.3-18.4-14.5-34.3-31.3-44.7
	C616,168.3,613.1,167.3,610.3,166z M178.5,190.4c11.8,6.9,21.7,15.7,30.1,26.3c14.5,18.3,24.1,39.1,30.7,61.4
	c6.2,21.2,9.5,42.8,10.6,64.8c1,19.5,0,38.8-4.8,57.7c-2.2,8.8-5.7,17.3-8.6,26c-0.2,0.7-0.2,1.6-0.2,2.4c0.3,0,0.6,0.1,0.9,0.1
	c0.5-0.9,0.9-1.7,1.4-2.6c8.5-17.5,12.3-36.3,13.8-55.5c1.5-18.9,0.4-37.7-2.3-56.5c-2.9-20.1-7.8-39.6-15.7-58.3
	c-8.9-21-20.6-40.1-38.3-54.9C190.8,196.9,185,193.1,178.5,190.4z M535,317c5.6,1.8,11.8,0.5,14.4-0.3c9.5-2.9,16.5-9.1,21.5-17.6
	c6.9-11.7,9.6-24.5,9.6-38c-0.1-17.7-4.2-34.3-12.7-49.8c-5.8-10.8-13.2-20.3-23.8-26.9c-9-5.6-18.4-8.5-29-5.9
	c-4.4,1.1-8.5,2.7-11.9,6c3.1-0.5,6.2-1.2,9.2-2.1c10-3.1,19.5-1.8,28.5,3c8.9,4.7,15.7,11.9,21.5,20c8.3,11.6,12.8,24.7,15.3,38.5
	c1.7,9.6,1.8,19.3,0.2,29c-1.7,10.2-4.8,19.9-11.2,28.1c-5.3,6.7-11.9,11.6-20.6,13.2C542.3,314.8,538.7,316,535,317z M129.5,475.4
	c0.1,0.2,0.2,0.4,0.3,0.6c14.3-2.1,28.6-4.3,43.3-6.5c-7.3-4.7-14.3-9.2-21.5-13.8C145.9,463.6,138.5,470.4,129.5,475.4z M572,302.4
	c2.9-2.3,7.7-11.3,9.2-16.3c3.7-12.3,4.6-24.9,3.2-37.6c-1.6-14.9-6.3-28.7-13.9-41.6c-6.6-11.1-15.1-20.2-26.6-26.3
	c-0.9-0.5-1.9-0.8-3.4-1.4c0.5,0.8,0.6,1,0.7,1.1c7.1,3.5,12.8,8.7,18.1,14.6c8.4,9.4,14,20.4,17.9,32.2c4.5,13.7,6.7,27.8,5.2,42.4
	c-0.9,8.4-2.7,16.5-6.1,24.2C575.1,296.4,573.7,299.1,572,302.4z M561,189.6c-4.1-6.8-8.3-13.6-12.5-20.3c-0.3-0.4-1.3-0.6-1.8-0.5
	c-3.3,0.7-6.6,1.6-9.9,2.4c-2.8,0.7-5.7,1.4-8.5,2.1C541.2,175.4,549,179.1,561,189.6z M587.9,257.6c0.9-5,1.5-10.5,2.9-15.9
	c1.4-5.3,2.2-10.2-2.8-14.2c-0.1-0.1-0.2-0.3-0.3-0.4c-3.3-4.4-6.6-8.8-10.2-13.6c2.5,7.7,5.4,14.7,7,21.9
	C586.3,242.8,586.9,250.4,587.9,257.6z M561.1,315.3c0.1,0.1,0.3,0.2,0.4,0.2c6.4-1.5,12.7-3,19.1-4.7c0.6-0.2,1.3-1.4,1.4-2.2
	c0.6-5.4,1-10.7,1.5-16.1c0.2-2.1,0.3-4.1,0.5-6.2C579.2,298.4,572.5,308.7,561.1,315.3z M473.5,256.2c0.8-0.1,1.4,0,2-0.2
	c13.4-2.9,26.7-5.8,40.1-8.7c1-0.2,2.3-0.4,1.8-2c-0.4-1.5-1.4-1.6-2.7-1.3c-7.7,1.7-15.4,3.3-23.1,5c-6.2,1.4-12.4,2.7-18.8,4.2
	C473.1,254.2,473.3,255.1,473.5,256.2z M519,252.5c-0.7-2.2-1.5-3.3-4-2.7c-8.1,1.9-16.3,3.6-24.5,5.3c-5.4,1.2-10.8,2.3-16.4,3.6
	c0.3,1.2,0.6,2.2,0.8,3.3C489.9,258.8,504.4,255.6,519,252.5z M477.7,278.2c1.1-0.1,1.9-0.2,2.6-0.3c12.9-2.8,25.9-5.6,38.8-8.4
	c2.1-0.5,2.6-1.6,2.1-4c-14.7,3.2-29.2,6.3-44,9.5C477.4,276.3,477.5,277.2,477.7,278.2z M518.7,254.9c-13.7,3-27.2,5.9-40.7,8.8
	c-3,0.7-3,0.7-1.6,3.8c14.4-3.1,28.9-6.2,43.4-9.4C519.3,256.9,519,256,518.7,254.9z M515.1,238.2c-14.5,3.1-29,6.2-43.4,9.4
	c0.1,3.3,0.3,3.4,3.1,2.8c12.7-2.8,25.4-5.5,38.2-8.2C515.1,241.7,516.1,240.9,515.1,238.2z M479,284.1c13.6-3,27.2-5.9,40.7-8.9
	c2.8-0.6,3-1,1.3-3.6c-0.3,0-0.6,0.1-0.9,0.1c-13.1,2.8-26.2,5.7-39.3,8.5C477.9,280.9,477.8,281.1,479,284.1z M470.2,242
	c0.2,3.4,0.3,3.4,3.1,2.8c12.6-2.7,25.2-5.5,37.9-8.2c2.7-0.6,2.9-0.9,1.4-3.8C498.5,235.9,484.3,239,470.2,242z M521.3,277.3
	c-13.8,3-27.2,5.8-40.7,8.7c-1.3,0.3-2.1,0.8-1.8,2.4c0.3,1.8,1.5,1.3,2.5,1c9.1-1.9,18.1-3.9,27.2-5.9c4.5-1,9-2,13.7-3
	C521.9,279.3,521.6,278.4,521.3,277.3z M511.6,230.6c-0.4-2.7-1.7-3.2-4-2.6c-7.4,1.8-14.9,3.2-22.3,4.9c-5.6,1.2-11.3,2.5-16.9,3.7
	c0.2,2.6,1.1,3.3,3.6,2.7c9.5-2.2,19.1-4.1,28.6-6.2C504.3,232.3,508,231.4,511.6,230.6z M521.4,283.3c-0.7,0.1-1.2,0-1.6,0.1
	c-12.8,2.8-25.6,5.5-38.3,8.3c-2.5,0.6-2.7,1-1.4,3.7c13.8-3,27.7-6,41.7-9C521.7,285.3,521.6,284.4,521.4,283.3z M509.9,225.2
	c-1.2-2.4-2.6-3.1-5-2.4c-4.7,1.3-9.5,2.1-14.3,3.1c-8,1.7-16,3.5-23.9,5.2c0.3,3.2,0.5,3.4,3.5,2.7c7.4-1.6,14.7-3.2,22.1-4.7
	C498.1,227.8,503.9,226.5,509.9,225.2z M521.7,289c-0.4,0-0.7,0-1,0.1c-12.9,2.8-25.9,5.6-38.8,8.3c-2.3,0.5-2.5,1.7-1.8,3.7
	c0.8-0.1,1.6-0.2,2.4-0.3c11.8-2.6,23.6-5.2,35.4-7.6C520.3,292.7,522.1,292.1,521.7,289z M521.9,295c-0.7,0-1.3-0.1-1.8,0
	c-12.5,2.7-25,5.5-37.6,8.1c-2.7,0.6-2.8,1.7-1.8,3.9c12.7-2.7,25.4-5.5,38.1-8.2C521,298.4,521.6,297.1,521.9,295z M465.6,228.9
	c14-3,27.7-6,41.6-9c-0.6-2.1-1.4-3.2-3.6-2.7c-8.3,1.9-16.7,3.6-25,5.4c-4.6,1-9.2,2-14,3C465,226.8,465.2,227.7,465.6,228.9z
	 M520.8,300.8c-13.6,2.9-27,5.8-40.3,8.7c0,1.2,0,2.2,0,3.2c0.4,0,0.6,0,0.9,0c12.6-2.7,25.3-5.4,37.9-8.1
	C521,304.1,521.5,302.8,520.8,300.8z M503.6,214.9c-0.3-3-0.7-3.4-3.3-2.8c-8.3,1.8-16.6,3.6-25,5.4c-4.3,0.9-8.5,1.9-12.7,2.9
	c0.7,3.3,0.7,3.3,3.5,2.7c2.9-0.6,5.8-1.3,8.7-1.9C484.4,219,494,217,503.6,214.9z M480.3,318.5c0.6,0,1.2,0.1,1.7,0
	c11.9-2.6,23.7-5.3,35.6-7.7c2.6-0.5,2.6-1.7,1.9-3.7c-0.5,0.1-1,0.1-1.5,0.2c-12,2.6-24.1,5.2-36.1,7.7
	C479.8,315.4,479.8,316.7,480.3,318.5z M499.9,209.8c-0.3-3.3-0.5-3.4-3.3-2.8c-7.4,1.6-14.9,3.2-22.3,4.8c-4.7,1-9.3,2.1-13.9,3.1
	c0.2,2.7,1.3,3.3,3.7,2.7c4.6-1.2,9.4-2.1,14.1-3.1C485.4,213,492.6,211.4,499.9,209.8z M518.2,313c-12.4,2.7-24.7,5.2-36.9,8
	c-0.6,0.1-0.9,1.6-1.4,2.4c0.7,0.2,1.5,0.8,2.2,0.7c11.5-2.4,23-4.9,34.5-7.3C518.9,316.4,518.7,315.1,518.2,313z M477,272.8
	c14.5-3.1,28.7-6.2,43-9.3c0.1-1.1,0.1-2,0.2-3c-14.8,3.2-29.2,6.3-43.8,9.5C476.6,271,476.8,271.7,477,272.8z M495.9,204.9
	c-0.8-3.2-0.9-3.2-3.6-2.6c-4.2,0.9-8.4,1.8-12.6,2.7c-7.2,1.5-14.4,3.1-21.6,4.7c0.4,2.3,1,3.5,3.6,2.7c2.5-0.8,5.2-1.1,7.8-1.7
	C478.2,208.7,487,206.8,495.9,204.9z M491.5,199.9c-1-2.4-2.4-3.1-4.9-2.5c-7.9,1.9-15.8,3.5-23.8,5.3c-2.4,0.5-4.9,1.1-7.2,1.6
	c0.2,3.2,1.8,3.1,3.8,2.6c2.8-0.7,5.7-1.2,8.5-1.9C475.8,203.4,483.7,201.6,491.5,199.9z M486.2,195.3c-2.7-3-2.7-3-5.9-2.2
	c-2,0.5-4,0.9-6,1.3c-7.1,1.5-14.2,3.1-21.4,4.6c0.5,2.2,1.2,3.7,3.7,2.6c0.9-0.4,1.9-0.4,2.9-0.6
	C468.3,199.1,477.1,197.2,486.2,195.3z M516.3,319.3c-10.7,2.3-21.3,4.6-32.4,7c1.9,1.7,3.2,2.9,5.5,2.3c8.2-1.9,16.5-3.7,24.7-5.4
	C516.5,322.8,516.9,321.7,516.3,319.3z M479,191c-1.7-2.4-3.5-2.8-6-2.2c-7.1,1.7-14.2,3.1-21.3,4.6c-0.6,0.1-1.2,0.5-1.8,0.8
	c0,0.3-0.1,0.6-0.1,0.9c1,0.5,2.2,1.6,3,1.4C461.5,194.8,470.2,192.9,479,191z M514.5,325.5c-8.2,1.8-16.2,3.5-24.5,5.3
	c1.6,2,2.8,3,5.2,2.4c5.3-1.4,10.6-2.5,16-3.5C513.6,329.3,514.6,328.2,514.5,325.5z M645.9,240.6c1.3-7.7-4.9-32.5-8.8-37.2
	c0.8,5,1.7,10.1,2.5,15.2c0.3,1.6,0.3,3.3,0.8,4.9C642.2,229.3,644.1,235.2,645.9,240.6z M469.3,187.1c-2.7-0.5-5-0.9-7.2-1.3
	c-0.4-0.1-0.8-0.3-1.2-0.2c-4.7,1-9.3,2-14,3c1.2,3.1,1.2,3.1,4,2.5c3.6-0.7,7.2-1.4,10.7-2.2C464.1,188.4,466.6,187.8,469.3,187.1z
	 M511.9,331.9c-5.6,1.2-11.1,2.4-16.8,3.7c1,2.2,2.2,3.2,4.5,2.5c2.6-0.7,5.3-1.3,8-1.7C510.1,335.9,512,335.1,511.9,331.9z
	 M493.1,187c3.4-0.7,10.7-5.5,12.3-8.2c-2.9,0.7-5.7,1.4-8.4,2.1C493.1,181.8,492.6,182.5,493.1,187z M524.5,319.8
	c0.9,1.6,1.5,4,3.7,3.7c3.6-0.5,7.1-1.7,10.7-2.5c-2-0.8-4.1-0.8-6-1.5C530.1,318.3,527.4,318.5,524.5,319.8z M499.4,340.5
	c-0.1,0.4-0.2,0.7-0.3,1.1c1.3,0.5,2.5,1.4,3.8,1.4c2.8,0,5.4-0.7,5.6-4.5C505.5,339.1,502.5,339.8,499.4,340.5z M227.8,253.7
	c-1,1.2-1.7,1.9-2.4,2.7c1.1,0.5,2.3,1,3.4,1.5c0.2-0.2,0.3-0.4,0.5-0.7C228.8,256.3,228.4,255.4,227.8,253.7z"/>
<path class="st0" d="M470.5,320.2c-1.6-0.2-2.9-0.5-4.2-0.6c-10.1-1.1-19.5,1.6-28.6,5.4c-4.5,1.9-9,3.9-13.3,6.4
	c-8.6,5-17.2,5-26.4,2.1c-8.5-2.8-17.1-5.3-25.9-7.2c-10-2.2-20-1.3-30,0.8c-12.3,2.6-24.8,4.7-37,7.6
	c-13.7,3.3-24.3,18.2-23.1,32.1c0.7,8.1,3.6,15.7,6.8,23.1c3.6,8.4,7.4,16.7,10.9,25.2c1.1,2.7,2.1,5.7,2.3,8.6
	c0.3,5.2-3.2,8.3-7,11c-4.2,2.9-8.6,5.7-12.6,8.9c-2.5,2-5.1,2.6-8.1,2.4c-12.9-0.8-24.1-6.1-34.1-14c-0.5-0.4-0.8-1.8-0.5-2.4
	c7.7-15.2,11.7-31.4,13.9-48.2c2.1-16.3,2.1-32.7,0.7-49.1c-1.7-20.5-5.3-40.5-11.6-60.1c-6.8-21-16.2-40.6-30.4-57.7
	c-11.8-14.2-25.9-25.4-44-30.5c-4.2-1.2-8.6-1.8-13.4-2.8c4.1-0.8,7.8-1.5,11.6-2.2c17.1-3.2,34.2-6.5,51.3-9.7
	c19.1-3.6,38.3-7.2,57.4-10.8c15.2-2.9,30.4-5.8,45.7-8.7c13.8-2.6,27.6-5.6,41.6-7.5c5.4-0.8,11.3,0.4,16.8,1.5
	c12.4,2.5,22.7,9.2,32,17.3c20.2,17.5,33,40.1,42.9,64.5c7.4,18.3,12.1,37.3,14.4,56.8c1.3,10.8,1.7,21.7,2.4,32.6
	C471,316.5,470.7,318.1,470.5,320.2z M246.8,255.1c0.1-3.4-1.8-5.4-4.3-5.5c-2.2-0.1-3.5,1-3.5,3c0,2.4,2.4,4.7,4.8,4.8
	C246.1,257.4,246.7,256,246.8,255.1z"/>
<path class="st0" d="M160.9,375.3c-5.2-1.3-10.1-2.9-15.1-3.8c-3.6-0.6-5.7-1.8-5.7-5.8c0-1.5-0.4-3.1-0.8-4.6
	c-0.2-1-0.7-1.9-1.2-3.3c-2.9,4.3,0.4,8.1-0.2,12c-5.9-0.9-11.7-1.8-17.5-2.5c-2.5-0.3-5-0.3-7.5-0.6c-0.8-0.1-1.9-1.1-2-1.8
	c-1.4-7.3-2.6-14.7-4.1-22c-0.3-1.6-1.4-3-2.6-4.4c-1.3,2.9-3.1,5.2-2.4,8.6c1.4,6.5,2.3,13,3.5,19.7c-2.4,0.5-4.6,0.8-6.7,1.4
	c-11.9,3.1-17,15.1-10.7,25.9c3.2,5.5,7.9,9.7,13,13.3c6.2,4.4,12.5,8.6,18.9,12.7c8.1,5.2,14.6,11.8,20.1,19.6
	c0.4,0.5,0.4,1.7,0.1,2.1c-6.2,8.6-13.9,15.5-23.9,19.3c-11.2,4.2-22.5,3.5-33.5-1.1c-13.3-5.6-23.6-15.1-32.5-26.3
	c-16.7-21.1-26.7-45.3-32.7-71.3c-4-17.5-6.1-35.3-5.5-53.2c0.7-21.7,4.4-42.7,14.5-62.1c5.5-10.6,12.7-19.7,23.3-25.7
	c12.8-7.1,26-7.6,39.5-2.3c10.8,4.3,19.8,11.3,27.8,19.6c12.6,13.1,21.3,28.6,28.4,45.1c6,14,9.9,28.6,12.6,43.6
	c2.3,13,3.4,26.2,3.4,39.4C161.4,369.6,161,372.5,160.9,375.3z M26.4,303.3c2.3,2.8,4.4,5.3,6.5,7.6c0.5,0.6,1.6,1,2.3,0.9
	c5.2-0.9,10.4-1.9,15.6-2.9c0.5-0.1,1.2-0.4,1.4-0.7c1.2-3.3,2.4-6.6,3.7-10.2C45.9,299.8,36.4,301.5,26.4,303.3z M61.9,344.7
	c0-1.7-3.5-4.8-5.2-4.5c-4.8,0.9-9.6,2.1-14.4,2.6c-3.4,0.3-4.5,2.1-5.2,4.8c-0.5,1.9,2.5,5.7,4.6,5.4c5.2-0.9,10.4-1.8,15.6-2.7
	C59.9,349.8,61.8,347.4,61.9,344.7z M35.8,347.1c0.5-3.4,1.5-6.4,1.3-9.3c-0.3-4.4-1.7-8.8-2.3-13.2c-0.9-7.3-2.8-14-9.2-18.4
	c2.1,11.4,4.2,22.8,6.2,34.3C32.2,342.8,32.7,345.1,35.8,347.1z M103.9,334c0.1-2.6,0.4-4.8,0.1-6.9c-0.7-5.2-1.8-10.4-2.7-15.7
	c-1.1-6.4-2.3-12.7-3.6-19.7c-1.1,3-2.1,5.4-2.7,7.8c-0.5,1.8-0.7,3.9-0.4,5.8c0.7,5.2,1.7,10.3,2.6,15.4
	C97.9,325.6,98.3,330.6,103.9,334z M41.1,392.5c0.1,0,0.3,0,0.4,0.1c0.8-2.1,1.4-4.2,2.3-6.1c1.2-2.5,1.2-5,0.6-7.7
	c-1.2-5.9-2.4-11.9-3.1-17.8c-0.5-4-2.4-6.9-5.3-9.4c-1.6,2.8-1.6,2.8-0.5,9.3C37.3,371.4,39.3,381.9,41.1,392.5z M137.2,355.4
	c0.3-0.1,0.6-0.2,0.9-0.2c-1.1-6.1-2.1-12.3-3.2-18.8C132.3,341.5,133.8,352.2,137.2,355.4z M110.1,244c-0.2,0-0.5,0-0.7,0
	c0,0.5-0.2,1.1,0,1.4c3.7,5.2,4.3,10.9,3.2,17c-0.1,0.5,0.2,1.2,0.4,1.8C115.3,256.9,114,250.2,110.1,244z M97.3,246.1
	c-2.9,5.9-0.8,17,3.7,20.9c-1.3-3.7-3-6.9-3.5-10.3C96.8,253.2,97.3,249.6,97.3,246.1z M102.3,254.6c0.9,1.6,1.7,2.9,2.6,4.2
	c0.1,0.2,1.6-0.2,1.7-0.4c0.2-1.5,0.6-3.1,0.2-4.4c-0.2-0.9-1.6-1.5-2.4-2.3C103.7,252.5,103.1,253.4,102.3,254.6z M101.6,262.8
	c0.2-0.1,0.5-0.1,0.7-0.2c-0.8-2.2-2-4.4-2.4-6.7c-0.4-2.2-0.1-4.6-0.1-6.9c-0.2,0-0.5,0.1-0.7,0.1
	C97.8,254.1,98.7,258.7,101.6,262.8z M108,247.6c2,4.4,3.3,8.8,2.3,13.7C112.4,258.2,111.2,251.1,108,247.6z"/>
<path class="st0" d="M78.7,196.9c4.4-1,8.8-2,13.3-2.9c13.6-2.9,27.2-6,40.9-8.6c16.2-3.1,31.4-0.2,45.7,8
	c17.4,10,29.9,24.7,39.9,41.8c3.2,5.5,6.1,11.3,9.2,17.1c-2.6,0.9-5.5,1.2-4.9,4.6c0.4,2.6,3.3,3.6,8,2.8c2.4,7.1,5,14.3,7.1,21.6
	c7.3,25.8,10.7,52.1,10.1,78.9c-0.5,21.8-3.7,43.2-12.5,63.5c-0.5,1.1-1,2.1-1.7,3.5c-3.7-3-7.2-5.9-10.8-8.6
	c-11.7-9.1-23.4-18.2-35.1-27.2c-3.1-2.4-6.6-4.2-10-6.2c-1.6-0.9-2.2-1.8-2.1-3.7c0.3-6.6,0.7-13.3,0.5-19.9
	c-0.4-14-2.1-27.9-4.7-41.7c-2.7-13.9-6.5-27.3-11.7-40.4c-7-17.8-16.1-34.4-28.4-49.2c-5.7-6.8-11.8-13.3-19.1-18.5
	c-9.1-6.5-18.7-11.8-29.9-13.8c-1.2-0.2-2.5-0.2-3.7-0.4C78.7,197.2,78.7,197.1,78.7,196.9z"/>
<path class="st0" d="M485.7,191.4c4-1,7.4-1.9,10.8-2.7c6.6-1.6,13.2-3.2,19.8-4.9c7.5-2,14.6-0.5,21.5,2.6c7.7,3.4,13.7,9,19,15.4
	c9.8,11.9,15.4,25.7,18.2,40.7c1.8,9.4,2.2,18.9,0.9,28.3c-1.7,12.4-5.8,24-15,32.9c-4,3.9-8.9,6.7-14.7,8
	c-7.3,1.6-14.5,3.6-21.7,5.5c-1.2,0.3-2.4,0.4-4.3,0.8c0.6-2.5,1.1-4.7,1.6-6.8c0.1-0.2,0.3-0.5,0.3-0.7c0.4-3.4,0.7-6.7,1.1-10.1
	c0.1-1.1,0.3-2.1,0.5-3.1c0.1-0.3,0.3-0.6,0.3-0.9c0.1-3.6,0.1-7.1,0.1-10.7c0-0.8,0-1.6,0-2.4c0-1.6-0.1-3.2-0.1-4.8
	c0-0.8-0.1-1.6-0.1-2.4c0-0.6,0.4-1.2,0.3-1.7c-0.5-3.6-1.1-7.2-1.6-10.8c-0.1-0.6-0.2-1.3-0.2-1.9c0-0.5,0.3-1,0.2-1.5
	c-0.7-3.4-1.5-6.8-2.3-10.2c-0.2-0.9-0.4-1.7-0.7-2.6c-0.5-1.6-0.9-3.3-1.4-4.9c-0.2-0.6-0.4-1.2-0.6-1.9c-0.6-1.7-1.1-3.4-1.7-5
	c-0.3-0.8-0.5-1.6-0.7-2.4c-0.1-0.5,0-1.1-0.2-1.5c-1.6-3.3-3.2-6.5-4.9-9.8c-0.3-0.6-0.6-1.2-0.8-1.8c-0.2-0.6-0.1-1.2-0.4-1.7
	c-2-3-4-5.9-6-8.9c-0.5-0.7-0.9-1.4-1.4-2c-1-1.3-1.9-2.6-2.9-3.8c-0.6-0.8-1.3-1.5-1.8-2.3c-0.4-0.5-0.6-1.3-1.1-1.7
	c-3-2.4-6-4.7-9-7C486.7,192.3,486.5,192.1,485.7,191.4z"/>
<path class="st0" d="M171.9,381.3c-2.5-1.4-4.8-2.4-6.9-3.8c-0.6-0.4-1.2-1.6-1.2-2.4c0-4.5,0.3-9,0.2-13.5
	c-0.1-5.9,0-11.9-0.9-17.7c-1.7-11.6-3.8-23.1-6.2-34.6c-2.4-11.5-6.9-22.3-11.7-33c-7.7-17-17.6-32.5-31.4-45.2
	c-9-8.4-19.1-15-31.3-17.7c-16.2-3.7-30.3,0.8-42.5,11.5c-9.7,8.5-16,19.3-21,31.1c-4.8,11.5-7.6,23.5-9.3,35.7
	c-1.8,12.6-1.9,25.4-1,38.1c0.6,8.2,2.1,16.4,3.4,24.6c3,19.5,9.5,37.9,18.5,55.4c6.3,12.2,13.9,23.6,23.7,33.4
	c6.5,6.6,13.7,12.3,22,16.6c19.9,10.3,40.5,8.4,57.2-6.8c3.2-2.9,5.9-6.3,9.1-9.7c2.2,2.9,4.5,5.9,7.2,9.5
	c-3.2,3.5-6.3,7.2-9.8,10.6c-7.9,7.8-17.3,12.6-28.2,14.2c-7.2,1.1-14.4,0.7-21.4-1.4c-17.8-5.6-31.6-16.8-43.2-31.1
	c-18.6-22.9-29.8-49.3-36.8-77.7c-5.5-22.3-7.7-44.9-6.4-67.8c1.3-21.8,5.7-43,16-62.7c5.7-10.9,13.1-20.4,23.3-27.6
	c13-9.1,27.3-11.5,42.6-7.5c7.2,1.9,13.6,5.3,19.8,9.3c10.3,6.7,18.7,15.3,26.2,25c14.7,18.9,24.2,40.4,31.1,63.1
	c4.2,13.8,7.1,27.8,8.4,42.1c1,12,0.9,24.1,1.2,36.1C172.5,378.8,172.1,379.9,171.9,381.3z"/>
<path class="st2" d="M584.2,310.3c0.2-3.7,0.4-7.1,0.7-10.5c0.7-7.1,1.4-14.2,2.4-21.3c1.9-13.1,4.3-26.1,6.1-39.3
	c0.6-4.6,2.6-6.1,6.9-7c11.8-2.5,23.6-5.4,35.3-8.2c1.5-0.4,2.4-0.3,3.1,1.4c3.2,8.3,5.6,16.9,5.3,25.9c-0.3,8.6-1.8,17.1-5.3,25
	c-3.4,7.5-6.9,14.9-10.6,22.1c-0.6,1.2-2.6,2.2-4.1,2.5c-8.9,2.2-17.9,4.2-26.9,6.3C592.9,308.2,588.8,309.2,584.2,310.3z"/>
<path class="st0" d="M550.6,168c5.6-1.3,10.9-2.6,16.2-3.9c8.4-2,16.8-3.9,25.2-5.8c0.8-0.2,1.8-0.1,2.5,0.3
	c11.3,7.3,21.6,15.7,29.9,26.4c6.5,8.3,10.5,17.6,12.2,27.9c0.4,2.2,0.8,4.4,0.8,6.7c0,0.7-0.8,1.8-1.4,2
	c-13.4,3.3-26.8,6.4-40.2,9.5c-0.8,0.2-2.2-0.2-2.7-0.9c-15-19.1-28.9-39.1-41.3-60C551.4,169.6,551.1,169,550.6,168z"/>
<path class="st0" d="M475.6,321.6c-1.9,0.2-2.3-0.7-2.4-2.5c-0.4-11.1-0.3-22.2-1.6-33.2c-1.8-16.2-5.1-32.2-10.4-47.8
	c-4-11.8-8.6-23.4-14.4-34.4c-7-13.4-15.4-25.8-25.9-36.8c-8.2-8.7-17.5-15.8-28.2-21.1c-2.7-1.3-5.5-2.3-8.2-3.5
	c0.1-0.2,0.1-0.4,0.2-0.6c3.6,1.2,7.3,2,10.7,3.5c16.6,7.2,29.2,19.2,40.3,33.2c20.9,26.5,30.9,57.4,36.8,90.1
	c3,16.8,3.9,33.7,3.5,50.7c0,0.6,0,1.2-0.1,1.7C475.9,321.2,475.7,321.4,475.6,321.6z"/>
<path class="st0" d="M610.3,166c2.8,1.3,5.7,2.3,8.3,3.9c16.8,10.4,26,26.3,31.3,44.7c1.9,6.6,2.8,13.6,3.6,20.5
	c1.5,13.2-0.3,26-6,38.2c-2.2,4.7-5.3,8.7-9.5,12.1c6.2-13.5,10.7-27.4,10.4-42.4c-0.3-14.9-3.4-29.1-9.9-42.6
	c-6.6-13.7-16.8-24.3-28.9-33.4C609.8,166.6,610,166.3,610.3,166z"/>
<path class="st0" d="M178.5,190.4c6.5,2.7,12.3,6.5,17.6,11c17.7,14.8,29.5,33.9,38.3,54.9c7.9,18.7,12.7,38.2,15.7,58.3
	c2.7,18.8,3.7,37.6,2.3,56.5c-1.5,19.3-5.3,38-13.8,55.5c-0.4,0.9-0.9,1.7-1.4,2.6c-0.3,0-0.6-0.1-0.9-0.1c0.1-0.8,0-1.6,0.2-2.4
	c2.9-8.7,6.4-17.1,8.6-26c4.7-18.9,5.7-38.3,4.8-57.7c-1.1-22-4.4-43.7-10.6-64.8c-6.6-22.3-16.2-43.1-30.7-61.4
	C200.2,206.1,190.3,197.3,178.5,190.4z"/>
<path class="st0" d="M535,317c3.7-1,7.3-2.2,11-2.9c8.7-1.6,15.4-6.5,20.6-13.2c6.4-8.2,9.6-17.8,11.2-28.1c1.6-9.7,1.5-19.5-0.2-29
	c-2.5-13.8-7-26.9-15.3-38.5c-5.8-8.1-12.6-15.3-21.5-20c-9.1-4.8-18.6-6.1-28.5-3c-3,0.9-6,1.5-9.2,2.1c3.3-3.3,7.5-4.9,11.9-6
	c10.6-2.5,20,0.3,29,5.9c10.6,6.7,18,16.2,23.8,26.9c8.4,15.5,12.6,32.1,12.7,49.8c0,13.5-2.7,26.3-9.6,38c-5,8.4-12,14.7-21.5,17.6
	C546.8,317.5,540.6,318.8,535,317z"/>
<path class="st0" d="M129.5,475.4c9-5,16.4-11.8,22.1-19.7c7.2,4.6,14.1,9.1,21.5,13.8c-14.6,2.2-29,4.3-43.3,6.5
	C129.7,475.8,129.6,475.6,129.5,475.4z"/>
<path class="st2" d="M572,302.4c1.6-3.3,3-6,4.2-8.7c3.4-7.7,5.2-15.8,6.1-24.2c1.5-14.6-0.6-28.7-5.2-42.4
	c-3.9-11.8-9.5-22.8-17.9-32.2c-5.2-5.9-10.9-11.1-18.1-14.6c-0.1-0.1-0.2-0.3-0.7-1.1c1.5,0.6,2.5,0.9,3.4,1.4
	c11.5,6.1,20,15.2,26.6,26.3c7.6,12.9,12.3,26.8,13.9,41.6c1.4,12.7,0.4,25.3-3.2,37.6C579.8,291,574.9,300,572,302.4z"/>
<path class="st0" d="M561,189.6c-12-10.5-19.8-14.2-32.7-16.2c2.8-0.7,5.7-1.4,8.5-2.1c3.3-0.8,6.6-1.7,9.9-2.4
	c0.6-0.1,1.6,0.1,1.8,0.5C552.7,176,556.8,182.8,561,189.6z"/>
<path class="st0" d="M587.9,257.6c-1-7.2-1.6-14.8-3.3-22.2c-1.7-7.3-4.5-14.3-7-21.9c3.6,4.8,6.9,9.2,10.2,13.6
	c0.1,0.1,0.1,0.3,0.3,0.4c4.9,4,4.1,8.9,2.8,14.2C589.4,247.1,588.8,252.6,587.9,257.6z"/>
<path class="st0" d="M561.1,315.3c11.5-6.6,18.1-16.9,22.9-29c-0.2,2.1-0.3,4.1-0.5,6.2c-0.5,5.4-0.9,10.8-1.5,16.1
	c-0.1,0.8-0.8,2-1.4,2.2c-6.3,1.7-12.7,3.2-19.1,4.7C561.4,315.5,561.2,315.4,561.1,315.3z"/>
<path class="st0" d="M473.5,256.2c-0.3-1.1-0.4-2-0.7-3c6.4-1.4,12.6-2.8,18.8-4.2c7.7-1.7,15.4-3.3,23.1-5c1.3-0.3,2.3-0.2,2.7,1.3
	c0.4,1.6-0.8,1.8-1.8,2c-13.4,2.9-26.7,5.8-40.1,8.7C474.9,256.2,474.3,256.1,473.5,256.2z"/>
<path class="st0" d="M519,252.5c-14.6,3.2-29.2,6.3-44,9.5c-0.3-1.1-0.5-2-0.8-3.3c5.6-1.2,11-2.4,16.4-3.6
	c8.2-1.8,16.4-3.4,24.5-5.3C517.6,249.2,518.3,250.2,519,252.5z"/>
<path class="st0" d="M477.7,278.2c-0.2-1.1-0.3-2-0.5-3.2c14.7-3.2,29.3-6.3,44-9.5c0.6,2.4,0.1,3.5-2.1,4
	c-12.9,2.8-25.9,5.6-38.8,8.4C479.6,278.1,478.8,278.1,477.7,278.2z"/>
<path class="st0" d="M518.7,254.9c0.4,1.1,0.7,2,1.1,3.2c-14.6,3.1-29,6.3-43.4,9.4c-1.4-3.1-1.4-3.1,1.6-3.8
	C491.5,260.8,505,257.9,518.7,254.9z"/>
<path class="st0" d="M515.1,238.2c1,2.7,0,3.5-2.2,4c-12.7,2.7-25.4,5.4-38.2,8.2c-2.8,0.6-3,0.5-3.1-2.8
	C486.1,244.4,500.6,241.3,515.1,238.2z"/>
<path class="st0" d="M479,284.1c-1.2-3-1.1-3.2,1.8-3.8c13.1-2.9,26.2-5.7,39.3-8.5c0.3-0.1,0.6-0.1,0.9-0.1c1.6,2.6,1.5,3-1.3,3.6
	C506.2,278.1,492.6,281.1,479,284.1z"/>
<path class="st0" d="M470.2,242c14.1-3.1,28.2-6.1,42.3-9.2c1.5,2.9,1.4,3.2-1.4,3.8c-12.6,2.7-25.2,5.4-37.9,8.2
	C470.5,245.4,470.4,245.4,470.2,242z"/>
<path class="st0" d="M521.3,277.3c0.3,1.1,0.6,2,0.9,3.2c-4.7,1-9.2,2.1-13.7,3c-9.1,2-18.1,3.9-27.2,5.9c-1,0.2-2.2,0.7-2.5-1
	c-0.3-1.5,0.5-2.1,1.8-2.4C494.1,283.1,507.5,280.2,521.3,277.3z"/>
<path class="st0" d="M511.6,230.6c-3.6,0.8-7.3,1.6-11,2.4c-9.5,2.1-19.1,4-28.6,6.2c-2.5,0.6-3.4-0.1-3.6-2.7
	c5.6-1.2,11.2-2.5,16.9-3.7c7.4-1.6,14.9-3.1,22.3-4.9C509.9,227.5,511.2,227.9,511.6,230.6z"/>
<path class="st0" d="M521.4,283.3c0.1,1.2,0.2,2,0.4,3.2c-14,3-27.9,6-41.7,9c-1.3-2.8-1.2-3.2,1.4-3.7c12.8-2.8,25.6-5.6,38.3-8.3
	C520.3,283.3,520.8,283.3,521.4,283.3z"/>
<path class="st0" d="M509.9,225.2c-6.1,1.3-11.9,2.6-17.7,3.9c-7.4,1.6-14.7,3.1-22.1,4.7c-3,0.6-3.2,0.5-3.5-2.7
	c8-1.7,16-3.5,23.9-5.2c4.8-1,9.6-1.9,14.3-3.1C507.4,222.1,508.7,222.8,509.9,225.2z"/>
<path class="st0" d="M521.7,289c0.3,3.1-1.4,3.7-3.8,4.2c-11.8,2.4-23.6,5.1-35.4,7.6c-0.8,0.2-1.6,0.2-2.4,0.3
	c-0.8-2.1-0.5-3.3,1.8-3.7c12.9-2.7,25.9-5.5,38.8-8.3C521,289,521.3,289,521.7,289z"/>
<path class="st0" d="M521.9,295c-0.3,2.1-0.9,3.4-3.2,3.8c-12.7,2.6-25.4,5.4-38.1,8.2c-0.9-2.2-0.9-3.4,1.8-3.9
	c12.6-2.6,25.1-5.4,37.6-8.1C520.6,294.9,521.2,295,521.9,295z"/>
<path class="st0" d="M465.6,228.9c-0.4-1.3-0.6-2.1-0.9-3.2c4.8-1,9.4-2.1,14-3c8.3-1.8,16.7-3.5,25-5.4c2.2-0.5,3,0.6,3.6,2.7
	C493.3,223,479.6,225.9,465.6,228.9z"/>
<path class="st0" d="M520.8,300.8c0.7,2.1,0.3,3.4-1.5,3.8c-12.6,2.8-25.3,5.4-37.9,8.1c-0.2,0-0.5,0-0.9,0c0-1,0-2,0-3.2
	C493.8,306.6,507.2,303.7,520.8,300.8z"/>
<path class="st0" d="M503.6,214.9c-9.7,2.1-19.2,4.1-28.7,6.2c-2.9,0.6-5.8,1.3-8.7,1.9c-2.8,0.6-2.8,0.6-3.5-2.7
	c4.2-1,8.5-1.9,12.7-2.9c8.3-1.8,16.6-3.6,25-5.4C502.9,211.5,503.3,211.8,503.6,214.9z"/>
<path class="st0" d="M480.3,318.5c-0.5-1.8-0.5-3.1,1.7-3.6c12.1-2.5,24.1-5.2,36.1-7.7c0.5-0.1,0.9-0.1,1.5-0.2
	c0.7,2.1,0.6,3.2-1.9,3.7c-11.9,2.5-23.8,5.1-35.6,7.7C481.5,318.6,480.9,318.5,480.3,318.5z"/>
<path class="st0" d="M499.9,209.8c-7.2,1.6-14.5,3.2-21.8,4.7c-4.7,1-9.4,1.9-14.1,3.1c-2.4,0.6-3.4,0-3.7-2.7
	c4.6-1,9.3-2.1,13.9-3.1c7.4-1.6,14.9-3.2,22.3-4.8C499.3,206.5,499.5,206.6,499.9,209.8z"/>
<path class="st0" d="M518.2,313c0.5,2,0.7,3.4-1.6,3.8c-11.5,2.4-23,4.9-34.5,7.3c-0.7,0.1-1.5-0.4-2.2-0.7c0.4-0.8,0.8-2.3,1.4-2.4
	C493.5,318.3,505.8,315.7,518.2,313z"/>
<path class="st0" d="M477,272.8c-0.2-1.1-0.4-1.8-0.6-2.9c14.6-3.1,29-6.3,43.8-9.5c-0.1,1.1-0.1,1.9-0.2,3
	C505.7,266.6,491.5,269.6,477,272.8z"/>
<path class="st0" d="M495.9,204.9c-8.8,1.9-17.6,3.8-26.4,5.7c-2.6,0.6-5.3,0.9-7.8,1.7c-2.6,0.9-3.2-0.4-3.6-2.7
	c7.2-1.6,14.4-3.1,21.6-4.7c4.2-0.9,8.4-1.8,12.6-2.7C495,201.6,495.1,201.7,495.9,204.9z"/>
<path class="st0" d="M491.5,199.9c-7.9,1.7-15.7,3.4-23.5,5.1c-2.8,0.6-5.7,1.2-8.5,1.9c-2,0.5-3.7,0.5-3.8-2.6
	c2.3-0.5,4.7-1,7.2-1.6c7.9-1.7,15.9-3.4,23.8-5.3C489.1,196.8,490.5,197.5,491.5,199.9z"/>
<path class="st0" d="M486.2,195.3c-9.1,2-17.9,3.9-26.7,5.8c-1,0.2-2,0.2-2.9,0.6c-2.5,1-3.2-0.4-3.7-2.6c7.2-1.6,14.3-3.1,21.4-4.6
	c2-0.4,4-0.9,6-1.3C483.5,192.3,483.5,192.3,486.2,195.3z"/>
<path class="st0" d="M516.3,319.3c0.6,2.4,0.2,3.5-2.2,4c-8.3,1.6-16.5,3.5-24.7,5.4c-2.3,0.5-3.6-0.6-5.5-2.3
	C494.9,323.9,505.5,321.6,516.3,319.3z"/>
<path class="st2" d="M479,191c-8.9,1.9-17.5,3.8-26.2,5.5c-0.9,0.2-2-0.9-3-1.4c0-0.3,0.1-0.6,0.1-0.9c0.6-0.3,1.2-0.6,1.8-0.8
	c7.1-1.5,14.2-2.9,21.3-4.6C475.6,188.1,477.4,188.5,479,191z"/>
<path class="st0" d="M514.5,325.5c0.1,2.7-0.8,3.8-3.3,4.2c-5.4,0.9-10.7,2.1-16,3.5c-2.5,0.7-3.7-0.4-5.2-2.4
	C498.2,329,506.3,327.3,514.5,325.5z"/>
<path class="st0" d="M645.9,240.6c-1.8-5.5-3.7-11.3-5.5-17.2c-0.5-1.6-0.5-3.2-0.8-4.9c-0.8-5.1-1.7-10.2-2.5-15.2
	C640.9,208.1,647.2,232.9,645.9,240.6z"/>
<path class="st0" d="M469.3,187.1c-2.7,0.6-5.2,1.3-7.8,1.8c-3.6,0.8-7.1,1.5-10.7,2.2c-2.8,0.6-2.8,0.6-4-2.5c4.7-1,9.4-2,14-3
	c0.4-0.1,0.8,0.1,1.2,0.2C464.4,186.2,466.6,186.6,469.3,187.1z"/>
<path class="st0" d="M511.9,331.9c0.1,3.3-1.8,4.1-4.3,4.5c-2.7,0.4-5.4,1-8,1.7c-2.3,0.7-3.6-0.3-4.5-2.5
	C500.7,334.3,506.2,333.1,511.9,331.9z"/>
<path class="st0" d="M493.1,187c-0.5-4.4,0-5.2,3.9-6.2c2.7-0.7,5.4-1.3,8.4-2.1C503.8,181.5,496.5,186.3,493.1,187z"/>
<path class="st0" d="M524.5,319.8c2.9-1.3,5.5-1.5,8.4-0.4c1.9,0.7,4,0.7,6,1.5c-3.6,0.9-7.1,2-10.7,2.5
	C526.1,323.7,525.5,321.4,524.5,319.8z"/>
<path class="st0" d="M499.4,340.5c3-0.7,6-1.3,9.1-2c-0.1,3.8-2.8,4.5-5.6,4.5c-1.3,0-2.5-0.9-3.8-1.4
	C499.3,341.2,499.4,340.8,499.4,340.5z"/>
<path class="st2" d="M227.8,253.7c0.7,1.6,1.1,2.6,1.5,3.5c-0.2,0.2-0.3,0.4-0.5,0.7c-1.1-0.5-2.3-1-3.4-1.5
	C226.1,255.7,226.7,254.9,227.8,253.7z"/>
<path class="st1" d="M246.8,255.1c-0.1,0.9-0.7,2.3-2.9,2.3c-2.4-0.1-4.8-2.4-4.8-4.8c0-1.9,1.3-3.1,3.5-3
	C245,249.7,246.9,251.7,246.8,255.1z"/>
<path class="st1" d="M26.4,303.3c10-1.8,19.5-3.5,29.5-5.3c-1.3,3.6-2.4,6.9-3.7,10.2c-0.1,0.4-0.9,0.6-1.4,0.7
	c-5.2,1-10.4,2-15.6,2.9c-0.7,0.1-1.8-0.3-2.3-0.9C30.7,308.6,28.7,306.1,26.4,303.3z"/>
<path class="st1" d="M61.9,344.7c0,2.7-2,5.1-4.6,5.6c-5.2,0.9-10.4,1.8-15.6,2.7c-2,0.3-5.1-3.4-4.6-5.4c0.7-2.7,1.9-4.5,5.2-4.8
	c4.8-0.5,9.6-1.7,14.4-2.6C58.3,339.9,61.9,343,61.9,344.7z"/>
<path class="st1" d="M35.8,347.1c-3.1-2-3.6-4.2-4-6.7c-2-11.5-4.1-22.9-6.2-34.3c6.4,4.5,8.3,11.2,9.2,18.4
	c0.6,4.4,1.9,8.8,2.3,13.2C37.3,340.7,36.3,343.7,35.8,347.1z"/>
<path class="st1" d="M103.9,334c-5.5-3.5-6-8.4-6.8-13.2c-0.9-5.1-1.9-10.3-2.6-15.4c-0.3-1.9,0-3.9,0.4-5.8
	c0.6-2.5,1.7-4.8,2.7-7.8c1.3,6.9,2.5,13.3,3.6,19.7c0.9,5.2,2,10.4,2.7,15.7C104.3,329.2,103.9,331.4,103.9,334z"/>
<path class="st1" d="M41.1,392.5c-1.9-10.5-3.8-21.1-5.6-31.6c-1.1-6.5-1.1-6.5,0.5-9.3c3,2.5,4.8,5.4,5.3,9.4
	c0.8,6,1.9,11.9,3.1,17.8c0.6,2.7,0.6,5.1-0.6,7.7c-0.9,2-1.5,4.1-2.3,6.1C41.4,392.5,41.3,392.5,41.1,392.5z"/>
<path class="st1" d="M137.2,355.4c-3.4-3.2-4.9-13.9-2.4-19.1c1.1,6.5,2.2,12.7,3.2,18.8C137.8,355.3,137.5,355.3,137.2,355.4z"/>
<path class="st1" d="M110.1,244c3.9,6.2,5.2,12.9,2.9,20.2c-0.1-0.6-0.5-1.2-0.4-1.8c1.1-6.1,0.5-11.8-3.2-17c-0.2-0.3,0-0.9,0-1.4
	C109.6,244,109.9,244,110.1,244z"/>
<path class="st1" d="M97.3,246.1c0,3.5-0.5,7.1,0.1,10.5c0.6,3.4,2.2,6.7,3.5,10.3C96.5,263.1,94.3,252,97.3,246.1z"/>
<path class="st1" d="M102.3,254.6c0.8-1.2,1.4-2.1,2-2.9c0.9,0.7,2.2,1.3,2.4,2.3c0.4,1.4,0,3-0.2,4.4c0,0.2-1.5,0.6-1.7,0.4
	C104,257.5,103.2,256.1,102.3,254.6z"/>
<path class="st1" d="M108,247.6c3.3,3.5,4.4,10.6,2.3,13.7C111.3,256.5,110,252,108,247.6z"/>
</svg>
